<?xml version="1.0" standalone="no"?>
<!DOCTYPE svg PUBLIC "-//W3C//DTD SVG 20010904//EN"
 "http://www.w3.org/TR/2001/REC-SVG-20010904/DTD/svg10.dtd">
<svg version="1.0" xmlns="http://www.w3.org/2000/svg"
 width="1000.000000pt" height="600.000000pt" viewBox="0 0 1000.000000 600.000000"
 preserveAspectRatio="xMidYMid meet">

<g transform="translate(0.000000,600.000000) scale(0.100000,-0.100000)"
fill="#000000" stroke="none">
<path d="M6018 5178 c-18 -22 -121 -115 -228 -206 -107 -91 -202 -172 -211
-181 -9 -9 -54 -50 -100 -91 -46 -41 -135 -124 -198 -185 -62 -60 -116 -110
-120 -109 -3 0 -24 6 -47 13 -35 11 -45 11 -70 -2 -20 -10 -35 -12 -46 -6 -11
6 -30 4 -57 -7 -64 -25 -67 -77 -11 -159 l29 -42 -84 -78 c-47 -42 -82 -82
-78 -88 3 -5 2 -7 -4 -4 -5 3 -30 -13 -54 -37 -36 -34 -47 -40 -56 -30 -7 7
-36 18 -65 24 -72 16 -127 2 -152 -40 -20 -35 -23 -109 -7 -153 15 -40 14 -67
-4 -67 -9 0 -12 -6 -8 -17 5 -17 5 -17 -8 0 -13 16 -24 7 -131 -102 -114 -116
-118 -118 -168 -123 -59 -6 -89 -29 -120 -95 -23 -49 -51 -169 -41 -179 3 -4
0 -4 -7 1 -8 4 -12 16 -9 26 3 11 1 16 -5 13 -5 -4 -8 -17 -5 -30 2 -13 1 -24
-3 -24 -11 0 -21 30 -14 41 3 5 1 9 -5 9 -5 0 -12 -12 -14 -27 l-4 -28 -2 28
c-1 35 -21 26 -22 -11 l-1 -27 -7 28 -6 29 -97 -49 c-76 -38 -102 -47 -115
-39 -31 18 -184 13 -221 -7 -41 -23 -78 -79 -92 -142 -7 -27 -14 -57 -17 -65
-4 -8 -5 -19 -4 -23 1 -5 -3 -6 -9 -2 -5 3 -33 -1 -62 -10 -28 -8 -88 -15
-133 -15 -89 0 -97 -4 -128 -66 -19 -38 -34 -45 -107 -51 -30 -2 -62 -7 -70
-10 -26 -9 -80 -10 -86 -1 -11 18 -44 7 -58 -21 -9 -16 -13 -30 -11 -32 7 -7
15 -99 8 -99 -3 0 -14 10 -24 22 -23 26 -25 76 -4 106 13 17 13 21 2 16 -17
-6 -36 -40 -40 -74 -4 -23 36 -100 52 -100 3 0 17 -9 31 -20 36 -29 -4 -14
-53 19 -49 34 -68 90 -45 132 12 19 13 26 4 23 -18 -7 -36 -49 -36 -84 0 -30
37 -75 95 -118 l30 -21 -46 -1 c-76 0 -169 -12 -163 -21 2 -4 -11 -11 -30 -15
-40 -7 -193 0 -203 10 -3 3 0 6 7 6 8 0 5 7 -8 19 -12 10 -20 20 -17 22 2 3
-11 14 -29 27 -27 18 -51 23 -152 28 -79 5 -137 3 -174 -5 -30 -7 -93 -14
-140 -16 -86 -4 -170 -32 -170 -56 0 -6 -6 -9 -14 -6 -8 3 -17 -1 -20 -9 -3
-9 -10 -13 -15 -9 -8 5 -94 -52 -111 -74 -3 -3 -13 -12 -22 -19 -14 -11 -16
-10 -14 11 2 13 6 28 9 34 4 6 -3 8 -18 5 -52 -10 -114 -117 -175 -307 -28
-85 -33 -115 -33 -195 1 -111 16 -160 82 -250 74 -101 263 -215 375 -227 44
-5 56 -10 56 -23 0 -9 10 -26 23 -38 32 -30 165 -90 250 -112 89 -23 146 -43
212 -75 27 -14 80 -29 117 -34 37 -5 91 -21 120 -34 29 -14 67 -28 85 -32 17
-3 37 -13 44 -21 10 -12 7 -12 -22 -1 -27 10 -53 11 -122 3 -52 -7 -85 -15
-80 -20 5 -6 0 -6 -12 -1 -21 8 -214 7 -228 -2 -10 -6 -50 -10 -169 -19 -84
-6 -88 -7 -88 -30 0 -13 0 -27 -1 -31 -1 -14 94 -33 206 -43 486 -43 752 -53
1410 -55 382 -1 662 -6 730 -14 112 -11 825 -16 1036 -6 115 5 372 20 529 31
208 14 842 13 1415 -2 595 -16 1246 -14 1439 4 76 8 102 27 75 54 -20 21 -118
43 -208 47 -36 2 -24 7 64 31 133 35 195 62 285 120 129 85 173 142 221 281
12 35 29 75 38 88 20 31 20 179 2 291 -25 150 -83 345 -64 215 13 -89 6 -183
-18 -249 -13 -33 -28 -67 -34 -75 -37 -53 -144 -140 -239 -197 -102 -61 -128
-71 -316 -125 -197 -57 -227 -64 -370 -88 -269 -46 -424 -58 -865 -68 -204 -4
-327 -2 -385 5 -47 7 -193 15 -325 18 -328 8 -520 20 -580 34 -27 6 -90 29
-140 50 -147 63 -217 88 -321 114 -117 30 -287 56 -359 56 -173 0 -584 -118
-745 -214 -30 -18 -67 -36 -82 -40 -35 -8 -157 -79 -241 -139 -67 -49 -70 -50
-156 -55 -89 -5 -191 11 -191 29 0 6 -11 21 -25 34 -13 14 -42 56 -64 93 -68
117 -141 172 -327 246 -190 75 -246 80 -447 36 -130 -29 -298 -27 -442 5 -182
39 -231 52 -310 79 -41 14 -84 26 -95 26 -11 0 -34 7 -52 15 -18 8 -67 28
-108 45 -174 73 -278 138 -334 212 -67 89 -79 288 -17 288 10 0 70 -26 134
-59 148 -76 440 -180 657 -235 52 -13 167 -38 255 -54 88 -17 174 -33 190 -37
17 -3 181 -10 365 -14 386 -10 396 -11 517 -96 155 -108 263 -145 429 -145
127 0 237 31 399 114 197 100 504 195 680 211 332 28 569 24 849 -15 328 -45
530 -49 814 -15 428 51 601 77 787 120 33 8 94 19 135 24 41 6 136 20 210 31
147 23 291 41 530 65 300 30 347 42 412 108 31 31 71 106 49 92 -5 -3 -11 12
-14 33 -15 106 -27 212 -41 352 -9 85 -18 173 -21 195 -18 141 -18 151 -1 130
22 -29 19 -5 -4 30 -24 37 -26 52 -3 34 14 -12 14 -9 -3 21 -10 19 -27 44 -36
56 -11 12 -43 121 -78 260 -81 320 -85 333 -129 374 -20 19 -32 32 -27 28 39
-30 34 30 -7 84 -62 83 -171 283 -162 298 3 5 0 12 -6 15 -5 4 -8 13 -5 21 3
8 0 14 -6 14 -9 0 -9 3 0 12 9 9 7 14 -6 24 -13 10 -14 13 -3 14 11 0 9 4 -5
15 -17 13 -17 14 -1 15 24 0 22 31 -3 37 -13 4 -21 17 -26 42 -3 20 -8 44 -10
53 -3 10 3 19 16 23 11 4 18 10 15 15 -3 5 -12 7 -20 3 -8 -3 -15 0 -15 6 0 6
5 11 12 11 6 0 3 7 -8 15 -19 14 -18 14 4 15 21 0 22 4 22 83 -1 86 -16 145
-47 179 -16 18 -25 20 -93 14 -41 -4 -104 -14 -140 -22 -36 -9 -90 -15 -120
-14 -30 1 -93 2 -140 0 -360 -7 -629 -2 -704 13 -98 21 -99 21 -91 -3 3 -11 3
-20 -2 -20 -5 0 -9 10 -10 21 -2 26 -1 25 -40 34 -28 5 -32 4 -27 -9 3 -9 1
-16 -5 -16 -6 0 -10 3 -10 8 4 24 -3 34 -21 29 -11 -3 -20 -1 -20 4 0 14 -28
11 -33 -3 -4 -9 -6 -8 -6 3 -1 11 -33 25 -118 48 -86 24 -121 39 -135 57 -10
12 -57 53 -103 90 -56 44 -85 74 -85 87 0 28 -45 103 -67 112 -10 4 -48 9 -85
11 l-68 3 -32 -41z m172 -82 c0 -2 -7 -7 -16 -10 -8 -3 -12 -2 -9 4 6 10 25
14 25 6z m40 -2 c0 -3 -7 -12 -15 -20 -16 -17 -18 -14 -9 10 6 15 24 23 24 10z
m44 -185 c-7 -13 -54 -11 -54 2 0 6 9 8 22 4 17 -6 20 -4 14 10 -5 15 -4 16 9
5 8 -7 12 -16 9 -21z m-214 7 c0 -2 -7 -7 -16 -10 -8 -3 -12 -2 -9 4 6 10 25
14 25 6z m-40 -10 c0 -2 -7 -7 -16 -10 -8 -3 -12 -2 -9 4 6 10 25 14 25 6z
m100 -12 c-41 -11 -64 -24 -92 -55 -24 -27 -35 -33 -31 -20 10 39 99 89 158
89 11 0 -5 -6 -35 -14z m87 10 c-3 -3 -12 -4 -19 -1 -8 3 -5 6 6 6 11 1 17 -2
13 -5z m50 -49 c-4 -8 -2 -17 3 -20 6 -4 10 -12 10 -18 0 -8 -2 -9 -8 -1 -4 6
-18 17 -32 24 -23 12 -24 12 -11 -4 21 -25 10 -25 -27 0 l-32 22 33 -3 c19 -2
40 1 48 6 19 12 22 11 16 -6z m40 -5 c-1 -11 -2 -20 -3 -20 -1 0 -10 3 -18 6
-13 5 -14 9 -5 20 16 20 28 17 26 -6z m41 4 c-2 -10 2 -19 9 -21 7 -3 9 3 6
16 -4 15 -1 21 11 21 16 0 24 -39 9 -41 -45 -8 -60 -4 -58 16 3 25 3 25 15 25
6 0 10 -7 8 -16z m82 -4 c0 -11 4 -20 10 -20 5 0 7 7 4 15 -4 9 0 15 10 15 18
0 22 -25 5 -36 -14 -9 -59 16 -59 33 0 7 7 13 15 13 8 0 15 -9 15 -20z m-535
0 c-3 -5 -12 -10 -18 -10 -7 0 -6 4 3 10 19 12 23 12 15 0z m614 -8 c7 -14 6
-18 -8 -19 -10 -1 -17 6 -18 18 -2 24 13 25 26 1z m41 -8 c0 -8 -4 -14 -10
-14 -5 0 -10 2 -10 4 0 2 -3 12 -6 20 -5 12 -2 15 10 10 9 -3 16 -12 16 -20z
m36 -9 c-2 -7 1 -18 7 -25 10 -10 8 -10 -8 0 -25 14 -32 52 -9 43 8 -3 13 -11
10 -18z m-631 5 c-3 -5 -12 -10 -18 -10 -7 0 -6 4 3 10 19 12 23 12 15 0z
m235 -5 c9 -10 9 -15 1 -15 -6 0 -11 5 -11 10 0 6 -7 10 -16 10 -8 0 -12 -4
-9 -10 3 -5 2 -10 -4 -10 -16 0 -22 18 -9 23 23 9 35 7 48 -8z m432 0 c0 -5
-5 -11 -10 -13 -5 -1 -9 4 -9 13 0 9 4 14 9 13 5 -2 10 -8 10 -13z m38 -5 c0
-5 -4 -10 -10 -10 -5 0 -10 5 -10 10 0 6 5 10 10 10 6 0 10 -4 10 -10z m43
-14 c4 -10 1 -13 -9 -9 -15 6 -19 23 -5 23 5 0 11 -7 14 -14z m-883 0 c0 -2
-7 -7 -16 -10 -8 -3 -12 -2 -9 4 6 10 25 14 25 6z m535 -6 c3 -6 -1 -7 -9 -4
-18 7 -21 14 -7 14 6 0 13 -4 16 -10z m-450 -10 c-3 -5 -11 -10 -16 -10 -6 0
-7 5 -4 10 3 6 11 10 16 10 6 0 7 -4 4 -10z m842 -6 c-3 -3 -12 -4 -19 -1 -8
3 -5 6 6 6 11 1 17 -2 13 -5z m-777 -14 c-8 -5 -19 -10 -25 -10 -5 0 -3 5 5
10 8 5 20 10 25 10 6 0 3 -5 -5 -10z m-70 -4 c0 -2 -7 -7 -16 -10 -8 -3 -12
-2 -9 4 6 10 25 14 25 6z m970 -16 c0 -5 -2 -10 -4 -10 -3 0 -8 5 -11 10 -3 6
-1 10 4 10 6 0 11 -4 11 -10z m98 -15 c-3 -3 -9 2 -12 12 -6 14 -5 15 5 6 7
-7 10 -15 7 -18z m-1183 5 c-3 -5 -12 -10 -18 -10 -7 0 -6 4 3 10 19 12 23 12
15 0z m173 -4 c-7 -8 -15 -12 -17 -11 -5 6 10 25 20 25 5 0 4 -6 -3 -14z
m1047 -4 c-3 -3 -11 0 -18 7 -9 10 -8 11 6 5 10 -3 15 -9 12 -12z m-1119 -1
c-3 -5 -19 -11 -36 -13 -36 -5 -27 8 10 15 14 2 26 5 28 6 2 0 1 -3 -2 -8z
m1224 -11 c0 -5 -2 -10 -4 -10 -3 0 -8 5 -11 10 -3 6 -1 10 4 10 6 0 11 -4 11
-10z m-1303 -6 c-8 -8 -48 -13 -43 -6 2 4 14 8 26 9 12 1 20 0 17 -3z m1328
-13 c-3 -6 -11 -11 -16 -11 -5 0 -4 6 3 14 14 16 24 13 13 -3z m-1230 -1 c-3
-5 -12 -10 -18 -10 -7 0 -6 4 3 10 19 12 23 12 15 0z m35 0 c0 -5 -5 -10 -11
-10 -5 0 -7 5 -4 10 3 6 8 10 11 10 2 0 4 -4 4 -10z m-80 -14 c-4 -4 -16 -4
-26 2 -16 9 -14 10 8 9 15 -1 23 -6 18 -11z m1360 10 c0 -2 -9 -6 -20 -9 -11
-3 -18 -1 -14 4 5 9 34 13 34 5z m35 -16 c3 -6 -1 -7 -9 -4 -18 7 -21 14 -7
14 6 0 13 -4 16 -10z m60 -19 c0 -8 -6 -15 -13 -17 -7 -1 -8 0 -2 3 16 8 12
23 -5 17 -8 -4 -15 -1 -15 6 0 6 8 10 18 8 9 -2 17 -10 17 -17z m220 4 c91 -9
177 -52 113 -57 -13 0 -34 -2 -48 -3 -14 -2 -30 -3 -37 -4 -6 0 -15 -10 -18
-22 -6 -19 -10 -17 -37 21 -17 22 -33 39 -36 36 -3 -3 1 -14 9 -23 13 -17 13
-17 -6 -1 -11 9 -22 16 -25 15 -3 -1 -19 11 -35 26 l-30 28 45 -5 c25 -3 72
-8 105 -11z m-1626 -22 c-8 -10 -22 -19 -32 -19 -13 -2 -15 1 -7 10 5 7 6 17
2 22 -4 4 1 2 10 -5 15 -11 19 -11 24 3 4 9 9 15 11 12 3 -3 -1 -13 -8 -23z
m-93 10 c-8 -8 -56 -11 -51 -3 3 4 16 8 30 8 14 0 24 -3 21 -5z m1459 -3 c3
-5 1 -10 -4 -10 -6 0 -11 5 -11 10 0 6 2 10 4 10 3 0 8 -4 11 -10z m-1525 -4
c0 -2 -7 -7 -16 -10 -8 -3 -12 -2 -9 4 6 10 25 14 25 6z m-75 -16 c-3 -5 -12
-10 -18 -10 -7 0 -6 4 3 10 19 12 23 12 15 0z m170 0 c-3 -5 -11 -10 -16 -10
-6 0 -7 5 -4 10 3 6 11 10 16 10 6 0 7 -4 4 -10z m-210 -10 c-3 -5 -12 -10
-18 -10 -7 0 -6 4 3 10 19 12 23 12 15 0z m170 0 c-3 -5 -11 -10 -16 -10 -6 0
-7 5 -4 10 3 6 11 10 16 10 6 0 7 -4 4 -10z m-67 -5 c-3 -3 -20 -10 -38 -15
-19 -5 -29 -6 -24 -1 12 12 74 27 62 16z m102 -9 c0 -2 -8 -10 -17 -17 -16
-13 -17 -12 -4 4 13 16 21 21 21 13z m47 -2 c-3 -3 -12 -4 -19 -1 -8 3 -5 6 6
6 11 1 17 -2 13 -5z m-98 -15 c-23 -12 -90 -18 -83 -7 3 5 12 7 20 4 7 -3 15
-2 18 2 2 4 17 8 32 9 21 1 24 -1 13 -8z m-180 -3 c-2 -2 -22 -9 -43 -15 -22
-5 -35 -6 -30 -2 9 9 37 18 63 20 8 0 12 -1 10 -3z m1901 -17 c0 -6 -4 -7 -10
-4 -5 3 -10 11 -10 16 0 6 5 7 10 4 6 -3 10 -11 10 -16z m-1640 1 c0 -5 -4
-10 -10 -10 -5 0 -10 5 -10 10 0 6 5 10 10 10 6 0 10 -4 10 -10z m-250 -4 c0
-2 -7 -7 -16 -10 -8 -3 -12 -2 -9 4 6 10 25 14 25 6z m162 -8 c-6 -6 -23 -12
-37 -13 -27 -1 -21 10 10 18 34 8 39 7 27 -5z m-217 -8 c-3 -5 -14 -10 -23 -9
-14 0 -13 2 3 9 27 11 27 11 20 0z m136 -4 c-16 -19 -4 -25 37 -20 20 2 31 0
27 -6 -3 -6 -1 -10 4 -10 6 0 11 6 11 13 0 6 5 4 11 -6 15 -26 5 -31 -29 -15
-31 16 -59 17 -82 3 -13 -7 -13 -6 -2 7 15 19 2 31 -25 22 -17 -5 -17 -5 0 6
9 6 21 9 26 5 5 -3 12 -1 16 5 3 5 9 10 12 10 3 0 0 -6 -6 -14z m142 -19 c-7
-14 -10 -14 -28 0 -20 15 -20 15 3 8 14 -4 22 -2 22 6 0 7 3 10 6 6 3 -3 2
-12 -3 -20z m1721 8 c-4 -10 0 -15 12 -16 12 0 14 -3 6 -6 -15 -6 -44 16 -36
28 9 15 24 10 18 -6z m-1980 -20 c-9 -14 -18 -25 -20 -25 -7 0 10 35 20 42 17
12 17 9 0 -17z m46 21 c0 -3 -4 -8 -10 -11 -5 -3 -10 -1 -10 4 0 6 5 11 10 11
6 0 10 -2 10 -4z m-75 -16 c-3 -5 -12 -10 -18 -10 -7 0 -6 4 3 10 19 12 23 12
15 0z m-40 -10 c-3 -5 -12 -10 -18 -10 -7 0 -6 4 3 10 19 12 23 12 15 0z m110
-10 c-28 -12 -37 -12 -30 0 3 6 16 10 28 9 21 0 21 -1 2 -9z m-85 -10 c-8 -5
-22 -9 -30 -9 -10 0 -8 3 5 9 27 12 43 12 25 0z m160 -11 c0 -8 -46 -39 -57
-39 -4 0 0 7 10 14 16 12 16 14 1 20 -9 3 -19 4 -23 1 -5 -2 -28 -7 -52 -10
-24 -3 -53 -8 -64 -11 -16 -4 -17 -3 -4 5 8 5 37 12 64 16 27 3 50 7 52 9 6 6
73 1 73 -5z m155 -9 c-3 -5 -12 -10 -20 -10 -8 0 -17 5 -20 10 -4 6 5 10 20
10 15 0 24 -4 20 -10z m-59 -7 c-3 -4 -17 -8 -29 -10 -17 -2 -19 -1 -7 7 17
11 47 14 36 3z m1799 -3 c3 -6 -1 -7 -9 -4 -18 7 -21 14 -7 14 6 0 13 -4 16
-10z m-1695 -10 c-8 -5 -19 -10 -25 -10 -5 0 -3 5 5 10 8 5 20 10 25 10 6 0 3
-5 -5 -10z m-287 -18 c9 -8 22 -10 29 -6 9 5 10 4 3 -4 -5 -6 -35 -14 -65 -17
-30 -4 -65 -8 -77 -10 -12 -1 -20 1 -18 6 3 4 13 8 23 8 39 -1 87 8 89 17 4
13 -33 11 -92 -3 -27 -7 -51 -10 -53 -8 -6 5 9 10 63 22 54 12 79 10 98 -5z
m-322 -29 c13 -16 12 -17 -3 -4 -10 7 -18 15 -18 17 0 8 8 3 21 -13z m669 7
c0 -5 -2 -10 -4 -10 -3 0 -8 5 -11 10 -3 6 -1 10 4 10 6 0 11 -4 11 -10z
m-862 -25 c-3 -3 -9 2 -12 12 -6 14 -5 15 5 6 7 -7 10 -15 7 -18z m789 19 c-3
-3 -12 -4 -19 -1 -8 3 -5 6 6 6 11 1 17 -2 13 -5z m-417 -8 c0 -2 -7 -7 -16
-10 -8 -3 -12 -2 -9 4 6 10 25 14 25 6z m-270 -16 c0 -5 -5 -10 -11 -10 -5 0
-7 5 -4 10 3 6 8 10 11 10 2 0 4 -4 4 -10z m376 -2 c4 -7 4 -10 0 -7 -4 4 -23
3 -43 -1 -19 -5 -32 -5 -27 0 8 7 30 14 56 19 4 0 10 -5 14 -11z m-436 -2 c0
-3 -4 -8 -10 -11 -5 -3 -10 -1 -10 4 0 6 5 11 10 11 6 0 10 -2 10 -4z m85 -16
c-3 -5 -12 -10 -18 -10 -7 0 -6 4 3 10 19 12 23 12 15 0z m50 -7 c9 4 14 3 10
-3 -3 -6 -17 -10 -30 -10 -18 0 -23 4 -18 16 4 12 8 13 13 3 5 -6 15 -9 25 -6z
m361 0 c-2 -3 -22 -6 -43 -7 -21 -1 -45 -6 -52 -10 -9 -6 -12 -4 -9 5 3 8 19
14 41 14 19 0 39 3 43 7 4 4 11 5 16 2 5 -3 7 -8 4 -11z m-466 3 c0 -2 -7 -6
-15 -10 -8 -3 -15 -1 -15 4 0 6 7 10 15 10 8 0 15 -2 15 -4z m250 0 c0 -2 -7
-7 -16 -10 -8 -3 -12 -2 -9 4 6 10 25 14 25 6z m86 -18 c-9 -5 -20 -7 -23 -4
-4 3 -13 0 -22 -7 -14 -10 -14 -10 -4 3 6 8 24 16 39 17 24 1 25 0 10 -9z
m-311 -8 c-3 -5 -10 -10 -16 -10 -5 0 -9 5 -9 10 0 6 7 10 16 10 8 0 12 -4 9
-10z m99 -11 c-6 -10 -44 -18 -44 -10 0 4 3 10 6 14 8 8 44 5 38 -4z m277 -2
c-6 -8 -9 -16 -6 -19 3 -3 -3 -11 -12 -19 -16 -12 -17 -12 -6 2 7 9 10 19 6
23 -4 4 -1 11 7 16 21 13 24 12 11 -3z m49 9 c0 -2 -7 -7 -16 -10 -8 -3 -12
-2 -9 4 6 10 25 14 25 6z m-400 -16 c0 -5 -7 -10 -16 -10 -8 0 -12 5 -9 10 3
6 10 10 16 10 5 0 9 -4 9 -10z m150 6 c0 -2 -7 -7 -16 -10 -8 -3 -12 -2 -9 4
6 10 25 14 25 6z m166 -3 c-2 -3 -15 -6 -28 -8 -12 -1 -42 -6 -66 -9 -24 -3
-41 -2 -38 2 3 5 22 9 42 10 20 1 39 3 41 5 2 3 15 5 29 5 14 0 23 -3 20 -5z
m-151 -23 c-3 -5 -12 -10 -18 -10 -7 0 -6 4 3 10 19 12 23 12 15 0z m278 1 c4
-1 7 -9 7 -18 -1 -17 -1 -17 -10 -1 -7 11 -21 15 -45 14 -19 -2 -32 0 -30 4 4
6 39 7 78 1z m-418 -11 c-3 -5 -10 -10 -16 -10 -5 0 -9 5 -9 10 0 6 7 10 16
10 8 0 12 -4 9 -10z m93 -10 c-13 -21 -28 -27 -28 -10 0 5 8 14 18 19 23 14
24 14 10 -9z m182 10 c-16 -10 -3 -33 15 -26 15 5 8 -31 -8 -41 -6 -3 -7 -1
-3 6 11 18 -35 62 -51 49 -9 -7 -13 -7 -13 0 0 12 11 16 47 19 16 1 21 -2 13
-7z m-75 -10 c-3 -5 -18 -10 -33 -9 l-27 1 25 8 c35 11 42 11 35 0z m-425 -15
c0 -8 7 -15 16 -15 8 0 12 -5 9 -11 -5 -7 -14 -4 -26 7 -21 19 -25 34 -9 34 6
0 10 -7 10 -15z m258 3 c-6 -18 -28 -21 -28 -4 0 9 7 16 16 16 9 0 14 -5 12
-12z m305 -5 c-7 -2 -9 -12 -6 -21 4 -14 3 -15 -5 -2 -11 15 5 47 17 34 3 -4
1 -9 -6 -11z m62 7 c3 -6 -1 -7 -9 -4 -18 7 -21 14 -7 14 6 0 13 -4 16 -10z
m-285 -20 c0 -5 -5 -10 -11 -10 -5 0 -7 5 -4 10 3 6 8 10 11 10 2 0 4 -4 4
-10z m115 2 c-8 -8 -65 -10 -60 -2 2 4 18 7 35 7 16 0 28 -3 25 -5z m145 -12
c0 -4 -7 -11 -16 -14 -13 -5 -14 -4 -6 7 7 8 8 18 4 22 -4 5 -1 5 6 1 6 -4 12
-11 12 -16z m-310 0 c0 -5 -7 -10 -15 -10 -8 0 -15 5 -15 10 0 6 7 10 15 10 8
0 15 -4 15 -10z m83 -10 c-3 -11 -13 -20 -22 -19 -10 0 -11 2 -3 6 6 2 12 11
12 19 0 8 4 14 9 14 5 0 7 -9 4 -20z m107 1 c0 -5 -7 -12 -16 -15 -14 -5 -15
-4 -4 9 14 17 20 19 20 6z m-430 -11 c0 -5 -7 -10 -16 -10 -8 0 -12 5 -9 10 3
6 10 10 16 10 5 0 9 -4 9 -10z m385 0 c-3 -5 -12 -10 -18 -10 -7 0 -6 4 3 10
19 12 23 12 15 0z m-118 -6 c-3 -3 -12 -4 -19 -1 -8 3 -5 6 6 6 11 1 17 -2 13
-5z m87 -26 c-6 -9 -34 -11 -34 -3 0 3 6 12 13 19 12 14 31 0 21 -16z m146 18
c0 -2 -8 -10 -17 -17 -16 -13 -17 -12 -4 4 13 16 21 21 21 13z m71 -5 c-8 -5
-10 -14 -6 -22 6 -11 5 -11 -5 -2 -14 12 -6 33 13 33 8 0 7 -3 -2 -9z m-541
-5 c0 -11 -19 -15 -25 -6 -3 5 1 10 9 10 9 0 16 -2 16 -4z m265 -6 c3 -5 -1
-10 -10 -10 -9 0 -13 5 -10 10 3 6 8 10 10 10 2 0 7 -4 10 -10z m229 -9 c3 -5
-2 -15 -12 -22 -15 -12 -16 -12 -5 2 7 9 10 19 6 22 -3 4 -4 7 0 7 3 0 8 -4
11 -9z m2006 -1 c0 -5 -5 -10 -11 -10 -5 0 -7 5 -4 10 3 6 8 10 11 10 2 0 4
-4 4 -10z m-2480 -20 c0 -5 -4 -10 -10 -10 -5 0 -10 5 -10 10 0 6 5 10 10 10
6 0 10 -4 10 -10z m280 0 c0 -5 -7 -10 -15 -10 -8 0 -15 5 -15 10 0 6 7 10 15
10 8 0 15 -4 15 -10z m25 -30 c3 -5 -1 -10 -10 -10 -9 0 -13 5 -10 10 3 6 8
10 10 10 2 0 7 -4 10 -10z m55 0 c0 -5 -4 -10 -10 -10 -5 0 -10 5 -10 10 0 6
5 10 10 10 6 0 10 -4 10 -10z m-333 -6 c-3 -3 -12 -4 -19 -1 -8 3 -5 6 6 6 11
1 17 -2 13 -5z m329 -27 c4 -4 -2 -7 -14 -7 -12 0 -22 4 -22 9 0 10 26 9 36
-2z m34 3 c0 -5 -2 -10 -4 -10 -3 0 -8 5 -11 10 -3 6 -1 10 4 10 6 0 11 -4 11
-10z m-335 -10 c-3 -5 -10 -10 -16 -10 -5 0 -9 5 -9 10 0 6 7 10 16 10 8 0 12
-4 9 -10z m380 -10 c3 -5 -1 -10 -10 -10 -9 0 -13 5 -10 10 3 6 8 10 10 10 2
0 7 -4 10 -10z m-40 -10 c3 -6 -4 -10 -17 -10 -18 0 -20 2 -8 10 19 12 18 12
25 0z m-308 -16 c-3 -3 -12 -4 -19 -1 -8 3 -5 6 6 6 11 1 17 -2 13 -5z m356
-11 c-7 -2 -19 -2 -25 0 -7 3 -2 5 12 5 14 0 19 -2 13 -5z m-328 -23 c3 -6 -1
-7 -9 -4 -18 7 -21 14 -7 14 6 0 13 -4 16 -10z m375 -4 c-7 -7 -14 -6 -21 1
-9 9 -7 12 9 10 14 -1 18 -5 12 -11z m57 -12 c-3 -3 -12 -4 -19 -1 -8 3 -5 6
6 6 11 1 17 -2 13 -5z m-400 -20 c-3 -3 -12 -4 -19 -1 -8 3 -5 6 6 6 11 1 17
-2 13 -5z m-577 -58 c23 -3 41 -16 35 -26 -3 -4 5 -11 18 -15 12 -4 24 -8 27
-9 23 -8 50 -34 50 -48 0 -19 22 -20 50 -3 12 7 13 6 3 -7 -7 -8 -9 -18 -5
-23 4 -4 -6 -5 -23 -1 -16 4 -32 11 -35 15 -12 16 -109 80 -160 105 l-55 28
40 -7 c22 -4 47 -8 55 -9z m3685 -66 c10 -11 16 -20 13 -20 -3 0 -13 9 -23 20
-10 11 -16 20 -13 20 3 0 13 -9 23 -20z m-3815 -60 c0 -5 -2 -10 -4 -10 -3 0
-8 5 -11 10 -3 6 -1 10 4 10 6 0 11 -4 11 -10z m346 -35 c4 -8 14 -15 24 -15
23 0 35 -16 18 -23 -7 -3 -3 -6 9 -6 12 -1 25 -6 29 -12 10 -16 -38 0 -52 17
-6 8 -18 14 -26 14 -15 0 -38 19 -38 32 0 14 30 8 36 -7z m-326 1 c0 -3 -4 -8
-10 -11 -5 -3 -10 -1 -10 4 0 6 5 11 10 11 6 0 10 -2 10 -4z m20 -45 c0 -5 3
-18 6 -28 6 -15 3 -14 -15 4 -25 26 -26 33 -6 33 8 0 15 -4 15 -9z m430 -51
c13 -8 13 -10 -2 -10 -9 0 -18 -6 -20 -12 -3 -7 -7 -2 -10 10 -7 24 6 29 32
12z m-410 -10 c0 -5 -5 -10 -11 -10 -5 0 -7 5 -4 10 3 6 8 10 11 10 2 0 4 -4
4 -10z m-196 -26 c7 -17 -31 -68 -77 -104 -23 -18 -30 -20 -43 -9 -13 11 -7
20 43 71 31 32 60 58 64 58 4 0 10 -7 13 -16z m630 10 c9 -3 16 -10 16 -16 0
-5 -4 -6 -10 -3 -5 3 -10 0 -10 -7 0 -9 -3 -9 -10 2 -18 27 -13 35 14 24z
m376 2 c0 -2 -8 -10 -17 -17 -16 -13 -17 -12 -4 4 13 16 21 21 21 13z m-790
-37 c0 -5 -4 -9 -10 -9 -5 0 -10 7 -10 16 0 8 5 12 10 9 6 -3 10 -10 10 -16z
m470 -4 c0 -2 -7 -5 -15 -9 -9 -3 -15 0 -15 9 0 9 6 12 15 9 8 -4 15 -7 15 -9z
m-647 -25 c3 -13 0 -20 -9 -20 -7 0 -20 -10 -29 -23 -25 -39 -75 -71 -88 -57
-9 9 -3 20 27 46 21 18 43 31 49 27 6 -3 7 -1 3 6 -9 14 11 41 29 41 7 0 15
-9 18 -20z m192 0 c3 -5 -1 -10 -9 -10 -9 0 -16 5 -16 10 0 6 4 10 9 10 6 0
13 -4 16 -10z m495 -6 c0 -8 -19 -13 -24 -6 -3 5 1 9 9 9 8 0 15 -2 15 -3z
m-470 -34 c0 -4 -6 -10 -14 -13 -10 -4 -12 0 -9 14 5 18 23 18 23 -1z m615 10
c3 -6 -1 -7 -9 -4 -18 7 -21 14 -7 14 6 0 13 -4 16 -10z m-791 -15 c16 -42
-102 -140 -125 -104 -6 10 -2 20 16 34 14 11 40 35 57 53 35 36 43 39 52 17z
m703 -7 c-3 -8 -6 -5 -6 6 -1 11 2 17 5 13 3 -3 4 -12 1 -19z m43 12 c-12 -8
-13 -10 -1 -10 8 0 12 -2 9 -5 -7 -7 -38 5 -38 14 0 4 10 8 22 8 18 2 20 0 8
-7z m-986 -60 c-6 -5 -24 21 -24 34 0 6 6 1 14 -10 8 -10 12 -21 10 -24z m431
30 c3 -5 2 -10 -4 -10 -5 0 -13 5 -16 10 -3 6 -2 10 4 10 5 0 13 -4 16 -10z
m-146 -34 c9 -11 5 -20 -19 -45 -17 -17 -44 -38 -60 -48 -28 -16 -31 -16 -46
-1 -15 15 -13 18 25 42 22 15 47 35 53 46 15 23 31 25 47 6z m179 -22 c-10
-10 -36 8 -31 22 4 11 7 11 20 -2 9 -8 13 -17 11 -20z m-568 6 c0 -5 -5 -10
-11 -10 -5 0 -7 5 -4 10 3 6 8 10 11 10 2 0 4 -4 4 -10z m591 -36 c12 -14 11
-16 -5 -13 -11 2 -21 10 -24 17 -5 17 13 15 29 -4z m-156 -41 c-11 -8 -39 -24
-62 -34 -29 -14 -40 -24 -37 -34 9 -23 -14 -18 -26 5 -9 17 -7 22 17 30 86 31
103 43 97 64 -6 20 -6 20 12 3 19 -18 18 -19 -1 -34z m-435 0 c-1 -18 -18 -35
-24 -24 -4 6 -4 16 -1 21 7 12 25 13 25 3z m616 -20 c-7 -7 -26 7 -26 19 0 6
6 6 15 -2 9 -7 13 -15 11 -17z m-466 -18 c11 -13 8 -15 -16 -14 -17 1 -22 3
-11 6 9 2 15 9 12 14 -10 15 1 10 15 -6z m-130 -37 c0 -5 8 -8 17 -8 13 0 14
-3 6 -11 -8 -8 -17 -7 -34 5 -13 9 -31 16 -41 16 -23 0 -23 17 0 22 18 4 52
-12 52 -24z m850 28 c0 -2 -7 -7 -16 -10 -8 -3 -12 -2 -9 4 6 10 25 14 25 6z
m-240 -27 c0 -6 -4 -7 -10 -4 -5 3 -10 11 -10 16 0 6 5 7 10 4 6 -3 10 -11 10
-16z m-455 2 c2 -4 -8 -6 -23 -6 -15 1 -36 -3 -47 -7 -19 -9 -19 -8 -2 5 18
15 64 20 72 8z m-258 -33 c-3 -8 -6 -5 -6 6 -1 11 2 17 5 13 3 -3 4 -12 1 -19z
m285 -2 c14 -20 8 -30 -5 -11 -8 10 -18 15 -23 12 -6 -3 -16 -2 -23 2 -9 6 -3
9 15 9 16 0 32 -5 36 -12z m-322 0 c0 -3 -4 -8 -10 -11 -5 -3 -10 -1 -10 4 0
6 5 11 10 11 6 0 10 -2 10 -4z m195 -6 c3 -5 -1 -10 -10 -10 -9 0 -13 5 -10
10 3 6 8 10 10 10 2 0 7 -4 10 -10z m55 0 c0 -5 -2 -10 -4 -10 -3 0 -8 5 -11
10 -3 6 -1 10 4 10 6 0 11 -4 11 -10z m55 -20 c3 -6 -1 -7 -9 -4 -18 7 -21 14
-7 14 6 0 13 -4 16 -10z m-305 -21 c0 -5 -4 -9 -8 -9 -5 0 -9 7 -9 15 0 8 4
12 9 9 4 -3 8 -9 8 -15z m225 11 c3 -5 2 -10 -4 -10 -5 0 -13 5 -16 10 -3 6
-2 10 4 10 5 0 13 -4 16 -10z m95 -14 c0 -3 -4 -8 -10 -11 -5 -3 -10 -1 -10 4
0 6 5 11 10 11 6 0 10 -2 10 -4z m356 -8 c-1 -7 -5 -19 -9 -25 -5 -7 -4 -13 0
-13 5 0 15 6 22 13 11 9 12 9 7 0 -4 -7 -16 -18 -28 -24 -16 -9 -19 -8 -13 2
6 9 3 11 -11 6 -18 -7 -18 -6 1 8 11 9 21 20 21 25 2 16 4 20 8 20 2 0 3 -6 2
-12z m-412 -7 c4 -5 -1 -8 -9 -7 -21 3 -31 16 -12 16 9 0 18 -4 21 -9z m-239
-21 c3 -11 11 -20 16 -20 6 0 7 -4 4 -10 -11 -18 -32 -11 -43 15 -15 33 -15
35 2 35 8 0 18 -9 21 -20z m278 -17 c-7 -2 -19 -2 -25 0 -7 3 -2 5 12 5 14 0
19 -2 13 -5z m302 -14 c4 -6 14 -8 24 -4 12 5 13 4 4 -6 -9 -9 -16 -9 -25 -2
-7 6 -22 13 -33 16 -19 4 -18 5 2 6 12 0 25 -4 28 -10z m-268 -15 c-3 -3 -12
-4 -19 -1 -8 3 -5 6 6 6 11 1 17 -2 13 -5z m233 2 c0 -2 -7 -7 -16 -10 -8 -3
-12 -2 -9 4 6 10 25 14 25 6z m-510 -10 c0 -11 -19 -15 -25 -6 -3 5 1 10 9 10
9 0 16 -2 16 -4z m401 -14 c-13 -2 -27 0 -32 5 -6 6 3 7 23 4 28 -4 29 -6 9
-9z m64 -2 c-3 -5 -13 -10 -21 -10 -8 0 -14 5 -14 10 0 6 9 10 21 10 11 0 17
-4 14 -10z m-652 -7 c-7 -2 -19 -2 -25 0 -7 3 -2 5 12 5 14 0 19 -2 13 -5z
m244 -39 c-3 -3 -12 -4 -19 -1 -8 3 -5 6 6 6 11 1 17 -2 13 -5z m-277 -14 c0
-5 -2 -10 -4 -10 -3 0 -8 5 -11 10 -3 6 -1 10 4 10 6 0 11 -4 11 -10z m-317
-7 c-7 -2 -19 -2 -25 0 -7 3 -2 5 12 5 14 0 19 -2 13 -5z m92 -33 c14 0 36
-30 29 -41 -4 -7 -17 1 -35 20 -15 17 -35 31 -43 31 -17 0 -29 14 -19 23 3 4
18 -2 33 -13 16 -11 31 -20 35 -20z m490 1 c3 -5 1 -12 -5 -16 -5 -3 -10 1
-10 9 0 18 6 21 15 7z m-312 -8 c-7 -2 -21 -2 -30 0 -10 3 -4 5 12 5 17 0 24
-2 18 -5z m37 -2 c0 -5 3 -17 7 -27 4 -11 3 -15 -4 -11 -14 9 -24 47 -12 47 5
0 9 -4 9 -9z m-67 -18 c-7 -2 -21 -2 -30 0 -10 3 -4 5 12 5 17 0 24 -2 18 -5z
m42 -3 c3 -6 -1 -7 -9 -4 -18 7 -21 14 -7 14 6 0 13 -4 16 -10z m-50 -28 c-3
-3 -11 0 -18 7 -9 10 -8 11 6 5 10 -3 15 -9 12 -12z m30 8 c3 -5 1 -10 -4 -10
-6 0 -11 5 -11 10 0 6 2 10 4 10 3 0 8 -4 11 -10z m-110 -10 c3 -5 -1 -10 -9
-10 -9 0 -16 5 -16 10 0 6 4 10 9 10 6 0 13 -4 16 -10z m40 -30 c-3 -5 -13
-10 -21 -10 -8 0 -12 5 -9 10 3 6 13 10 21 10 8 0 12 -4 9 -10z m350 -9 c3 -5
2 -12 -3 -15 -5 -3 -9 1 -9 9 0 17 3 19 12 6z m-29 -16 c-1 -8 -5 -17 -8 -21
-5 -4 -4 16 1 34 3 9 9 -1 7 -13z m-286 -5 c0 -5 -7 -10 -15 -10 -8 0 -15 5
-15 10 0 6 7 10 15 10 8 0 15 -4 15 -10z m236 -15 c-11 -8 -25 -15 -30 -15 -6
1 0 7 14 15 32 19 40 18 16 0z m-206 -13 c0 -13 -12 -22 -22 -16 -10 6 -1 24
13 24 5 0 9 -4 9 -8z m85 -21 c3 -6 -4 -8 -16 -6 -30 6 -37 15 -11 15 11 0 23
-4 27 -9z m62 3 c-3 -3 -12 -4 -19 -1 -8 3 -5 6 6 6 11 1 17 -2 13 -5z m-112
-14 c3 -5 1 -10 -4 -10 -6 0 -11 5 -11 10 0 6 2 10 4 10 3 0 8 -4 11 -10z
m-882 -67 c-7 -3 -13 -11 -13 -19 0 -9 -4 -13 -9 -10 -5 3 -24 -17 -41 -44
-18 -28 -35 -49 -37 -46 -3 3 5 20 17 38 33 48 83 99 89 91 3 -3 0 -8 -6 -10z
m654 11 c-3 -3 -12 -4 -19 -1 -8 3 -5 6 6 6 11 1 17 -2 13 -5z m-722 -46 c-54
-61 -61 -67 -41 -33 22 35 57 74 70 74 4 1 -9 -18 -29 -41z m676 24 c-7 -2
-18 1 -23 6 -8 8 -4 9 13 5 13 -4 18 -8 10 -11z m-701 -7 c-7 -9 -15 -13 -17
-11 -7 7 7 26 19 26 6 0 6 -6 -2 -15z m745 -5 c3 -6 -1 -7 -9 -4 -18 7 -21 14
-7 14 6 0 13 -4 16 -10z m-50 -10 l20 -9 -20 0 c-11 0 -27 4 -35 9 -13 9 -13
10 0 9 8 0 24 -4 35 -9z m-290 -20 c-3 -5 -12 -10 -20 -10 -8 0 -19 -8 -25
-17 -8 -12 -10 -13 -7 -3 2 8 14 21 28 27 29 15 32 16 24 3z m266 -18 c-7 -2
-18 1 -23 6 -8 8 -4 9 13 5 13 -4 18 -8 10 -11z m96 2 c-3 -3 -12 -4 -19 -1
-8 3 -5 6 6 6 11 1 17 -2 13 -5z m-137 -14 c8 -5 11 -10 5 -10 -5 0 -17 5 -25
10 -8 5 -10 10 -5 10 6 0 17 -5 25 -10z m-595 -39 c-19 -38 -28 -41 -14 -5 13
35 20 46 26 41 2 -3 -3 -19 -12 -36z m249 7 c-3 -4 -9 -8 -15 -8 -5 0 -9 4 -9
8 0 5 7 9 15 9 8 0 12 -4 9 -9z m-49 -8 c-11 -5 -27 -9 -35 -9 -9 0 -8 4 5 9
11 5 27 9 35 9 9 0 8 -4 -5 -9z m-155 -160 c0 -5 -2 -10 -4 -10 -3 0 -8 5 -11
10 -3 6 -1 10 4 10 6 0 11 -4 11 -10z m-920 -14 c0 -11 -19 -15 -25 -6 -3 5 1
10 9 10 9 0 16 -2 16 -4z m37 -2 c-3 -3 -12 -4 -19 -1 -8 3 -5 6 6 6 11 1 17
-2 13 -5z m1063 -84 c0 -5 -2 -10 -4 -10 -3 0 -8 5 -11 10 -3 6 -1 10 4 10 6
0 11 -4 11 -10z m155 -190 c3 -6 -1 -7 -9 -4 -18 7 -21 14 -7 14 6 0 13 -4 16
-10z m80 -40 c3 -5 2 -10 -4 -10 -5 0 -13 5 -16 10 -3 6 -2 10 4 10 5 0 13 -4
16 -10z m70 -40 c3 -5 1 -10 -4 -10 -6 0 -11 5 -11 10 0 6 2 10 4 10 3 0 8 -4
11 -10z m70 -40 c3 -5 1 -10 -4 -10 -6 0 -11 5 -11 10 0 6 2 10 4 10 3 0 8 -4
11 -10z m2702 -960 c41 -5 92 -7 116 -4 23 2 64 -2 92 -10 39 -11 44 -14 22
-15 -16 -1 -36 -5 -46 -11 -50 -26 -267 -57 -447 -64 -56 -2 -111 -9 -123 -15
-12 -7 -26 -9 -31 -6 -6 3 -10 1 -10 -5 0 -6 -4 -9 -8 -6 -13 8 -208 9 -294 1
-42 -3 -84 -3 -92 2 -9 5 9 8 47 8 76 1 191 38 229 73 25 23 36 25 116 26 65
1 95 5 114 18 21 14 33 15 59 8 35 -10 113 -4 139 11 8 5 22 6 30 3 8 -3 47
-9 87 -14z"/>
<path d="M4460 3499 c0 -5 5 -7 10 -4 6 3 10 8 10 11 0 2 -4 4 -10 4 -5 0 -10
-5 -10 -11z"/>
<path d="M4429 3463 c-13 -16 -12 -17 4 -4 9 7 17 15 17 17 0 8 -8 3 -21 -13z"/>
<path d="M4500 3440 c-6 -11 -8 -20 -6 -20 3 0 10 9 16 20 6 11 8 20 6 20 -3
0 -10 -9 -16 -20z"/>
<path d="M8220 4386 c0 -9 5 -16 10 -16 6 0 10 4 10 9 0 6 -4 13 -10 16 -5 3
-10 -1 -10 -9z"/>
<path d="M8800 2391 c0 -6 5 -13 10 -16 6 -3 10 1 10 9 0 9 -4 16 -10 16 -5 0
-10 -4 -10 -9z"/>
<path d="M8805 2350 c-3 -5 -1 -10 4 -10 6 0 11 5 11 10 0 6 -2 10 -4 10 -3 0
-8 -4 -11 -10z"/>
<path d="M8802 2310 c0 -14 2 -19 5 -12 2 6 2 18 0 25 -3 6 -5 1 -5 -13z"/>
</g>
</svg>
