<?xml version="1.0" standalone="no"?>
<!DOCTYPE svg PUBLIC "-//W3C//DTD SVG 20010904//EN"
 "http://www.w3.org/TR/2001/REC-SVG-20010904/DTD/svg10.dtd">
<svg version="1.0" xmlns="http://www.w3.org/2000/svg"
 width="1000.000000pt" height="1000.000000pt" viewBox="0 0 1000.000000 1000.000000"
 preserveAspectRatio="xMidYMid meet">

<g transform="translate(0.000000,1000.000000) scale(0.100000,-0.100000)"
fill="#000000" stroke="none">
<path d="M5735 8944 c-49 -8 -119 -23 -155 -33 -36 -11 -84 -23 -108 -27 -36
-6 -46 -13 -66 -47 l-24 -40 19 -44 c27 -64 23 -76 -6 -20 -26 48 -27 85 -4
113 7 8 7 14 1 14 -49 0 -75 -153 -52 -305 6 -38 13 -92 16 -120 11 -125 14
-154 19 -220 2 -38 7 -88 9 -110 3 -22 7 -62 10 -90 2 -27 7 -75 10 -105 6
-56 14 -141 22 -240 11 -151 49 -379 64 -394 21 -21 21 9 0 161 -64 470 -87
928 -47 920 14 -3 29 78 24 131 -6 54 14 52 27 -2 7 -25 6 -81 -3 -169 -27
-265 -23 -423 12 -562 3 -11 6 -22 6 -24 1 -3 8 4 16 15 13 18 14 16 16 -26 1
-25 3 -67 5 -95 5 -78 8 -407 5 -548 -2 -78 1 -133 8 -141 14 -17 -5 -83 -28
-95 -28 -15 -41 -79 -41 -202 -1 -73 -6 -128 -15 -154 -8 -22 -15 -46 -15 -53
0 -8 -15 -32 -34 -55 -18 -23 -39 -53 -46 -67 -17 -33 -40 -119 -40 -153 0
-17 -20 -58 -52 -105 -78 -113 -123 -226 -111 -273 4 -14 0 -19 -13 -19 -29
-1 -65 -37 -125 -125 -81 -118 -109 -170 -109 -205 0 -23 -6 -33 -22 -39 -13
-5 -26 -7 -31 -4 -14 9 -83 -41 -186 -136 -77 -71 -109 -108 -126 -146 -12
-27 -32 -59 -44 -69 -12 -11 -21 -31 -21 -49 0 -21 -15 -46 -52 -89 -34 -40
-55 -75 -63 -106 -12 -46 -13 -47 -51 -48 -134 -3 -131 -3 -170 -39 -20 -19
-74 -60 -120 -90 -45 -30 -102 -71 -126 -90 -137 -109 -141 -113 -127 -173 7
-33 6 -49 -6 -72 -13 -26 -19 -29 -35 -20 -26 14 -26 30 0 37 18 5 18 7 5 40
-17 41 -65 98 -109 131 -34 25 -78 29 -99 7 -24 -23 -57 -139 -57 -196 0 -46
41 -274 55 -310 3 -8 31 -33 63 -56 31 -23 122 -103 201 -178 79 -76 156 -145
171 -154 15 -9 49 -35 76 -58 27 -22 121 -101 209 -174 88 -73 162 -135 165
-139 3 -3 23 -19 45 -35 31 -24 253 -220 275 -245 3 -3 50 -45 105 -94 99 -88
393 -375 483 -471 132 -141 295 -325 339 -380 22 -28 54 -64 72 -80 18 -17 69
-68 114 -113 45 -46 94 -90 110 -98 30 -16 37 -44 10 -44 -16 0 -63 44 -196
180 -19 19 -60 55 -90 80 -31 25 -56 50 -57 57 0 6 -4 13 -8 15 -4 1 -38 38
-75 81 -37 43 -75 86 -85 96 -25 27 -63 69 -116 131 -64 73 -423 437 -467 473
-18 15 -92 83 -164 151 -71 68 -184 168 -250 222 -66 53 -154 127 -195 163
-41 37 -102 89 -135 116 -33 27 -62 52 -65 55 -3 3 -39 32 -80 65 -41 32 -124
107 -185 165 -212 205 -278 255 -259 198 11 -36 34 -128 45 -183 6 -27 14 -54
19 -60 9 -12 25 -162 24 -222 -1 -35 -7 -47 -35 -70 -18 -15 -46 -34 -62 -41
-35 -14 -107 -16 -107 -2 0 6 16 10 35 10 47 0 100 36 127 87 21 40 22 45 9
135 -14 99 -40 222 -71 328 -29 98 -81 367 -74 384 3 8 1 23 -4 33 -13 23 14
133 42 175 10 16 16 28 13 28 -17 0 -99 -65 -111 -88 -8 -15 -23 -35 -34 -45
-17 -16 -19 -27 -15 -76 l6 -58 -34 -6 c-19 -3 -42 -8 -51 -12 -13 -5 -18 -2
-18 9 0 25 -16 19 -40 -14 -13 -18 -30 -30 -44 -30 -12 0 -33 -12 -47 -26 -13
-14 -40 -34 -60 -44 -19 -10 -58 -39 -87 -65 -54 -49 -61 -47 -38 9 7 18 17
53 21 77 3 24 9 53 11 64 4 16 3 17 -5 5 -5 -8 -13 -11 -17 -7 -9 8 26 48 36
42 4 -3 13 2 20 10 15 19 11 19 -32 1 -40 -17 -84 -69 -94 -112 -4 -16 -12
-36 -19 -44 -15 -19 -35 -90 -35 -125 0 -15 -9 -38 -20 -52 -11 -14 -20 -34
-20 -44 0 -20 -28 -39 -56 -39 -26 0 -154 -61 -155 -74 -1 -6 -2 -15 -4 -21
-1 -5 -3 -18 -3 -27 -1 -11 -10 -18 -23 -18 -12 0 -32 -11 -45 -25 -13 -14
-26 -25 -29 -25 -8 0 45 94 59 102 8 5 8 10 0 18 -15 15 -66 -28 -95 -80 -12
-22 -26 -37 -31 -34 -4 3 -8 0 -8 -6 0 -6 -8 -10 -17 -9 -26 4 -66 -11 -80
-30 -11 -14 -12 -14 -13 2 0 19 36 61 61 69 8 3 11 8 8 12 -4 4 -26 -1 -50 -9
-24 -9 -60 -20 -79 -24 -28 -6 -35 -11 -33 -29 3 -24 -7 -28 -24 -11 -8 8 -13
5 -18 -10 -4 -12 -18 -23 -33 -26 -15 -3 -47 -12 -72 -21 -145 -50 -256 -76
-425 -98 -66 -9 -123 -20 -129 -26 -5 -5 -24 -10 -42 -10 -29 0 -32 3 -30 29
2 40 8 44 65 42 62 -2 75 14 18 22 -23 3 -51 8 -62 11 -159 44 -283 55 -369
32 -137 -37 -346 -169 -346 -220 0 -22 34 -81 68 -119 14 -15 21 -27 15 -27
-7 0 -21 13 -33 29 -11 17 -30 33 -41 36 -11 4 -29 21 -39 38 -26 42 -37 14
-16 -38 20 -46 20 -56 1 -31 -8 11 -15 28 -15 38 0 10 -4 18 -9 18 -20 0 -22
-21 -6 -66 l15 -46 -38 -46 c-43 -52 -110 -167 -118 -204 -28 -119 -31 -176
-10 -216 7 -15 16 -56 20 -91 9 -77 38 -141 66 -141 10 0 22 -5 25 -10 8 -13
81 -61 117 -77 16 -7 28 -17 28 -23 0 -5 10 -11 23 -11 14 -1 16 -3 6 -6 -9
-2 -60 21 -114 52 -54 30 -101 55 -106 55 -9 0 -86 91 -121 142 -14 21 -27 35
-30 32 -24 -23 83 -214 182 -327 55 -62 157 -131 318 -214 70 -36 172 -89 227
-118 55 -29 168 -81 250 -115 83 -34 175 -73 205 -85 58 -24 77 -30 205 -66
44 -12 105 -30 135 -40 129 -42 304 -93 430 -125 74 -19 146 -38 160 -43 14
-5 50 -14 80 -20 60 -13 149 -33 223 -50 26 -6 61 -11 77 -11 16 0 49 -4 72
-9 54 -12 145 -26 328 -51 121 -17 202 -20 495 -20 343 0 424 5 555 34 64 14
182 36 310 57 36 6 94 17 130 24 167 35 510 83 755 106 156 14 1117 5 1235
-11 85 -12 206 -24 330 -33 30 -2 72 -9 92 -16 27 -9 42 -9 58 -1 14 8 26 8
40 0 11 -6 73 -12 138 -14 64 -2 133 -7 153 -11 23 -4 39 -3 43 4 4 6 15 7 29
2 30 -11 558 -6 687 7 58 6 112 10 120 10 40 0 191 32 218 46 17 9 39 16 49
16 21 0 155 47 226 80 87 39 166 129 253 290 50 91 61 123 108 305 39 154 69
366 61 440 -2 17 -4 34 -4 39 -2 20 -13 -5 -26 -56 l-13 -53 -1 46 c-1 26 5
53 14 65 27 36 14 204 -15 204 -20 0 -51 -72 -86 -195 -18 -67 -75 -207 -81
-202 -2 3 1 17 7 33 13 34 18 74 27 222 3 61 10 112 15 112 4 0 8 20 8 44 0
25 5 48 10 51 25 15 -3 371 -36 458 -8 20 -14 47 -14 60 0 12 -9 33 -20 47
-13 16 -20 41 -20 71 0 25 -4 49 -9 55 -4 5 -14 32 -21 59 -7 28 -19 57 -25
65 -7 8 -16 35 -20 59 -4 24 -18 65 -31 90 -14 25 -22 51 -19 59 2 7 0 10 -5
7 -19 -11 -10 13 22 64 31 51 33 76 3 51 -8 -7 -15 -8 -15 -2 0 5 7 15 15 22
14 12 21 50 9 50 -3 0 -17 -9 -31 -20 -14 -11 -20 -20 -14 -20 7 0 9 -5 5 -11
-4 -8 -9 -7 -15 2 -8 11 -11 11 -20 -3 -5 -10 -15 -18 -21 -18 -5 0 5 17 23
38 18 20 37 36 42 34 5 -1 6 2 2 8 -4 6 3 26 15 45 20 33 21 35 4 42 -10 4
-19 2 -22 -5 -2 -7 -7 -12 -11 -12 -5 0 0 24 9 53 13 38 14 56 6 69 -7 12 -7
29 0 57 8 30 8 45 -3 66 -12 21 -12 29 -2 41 10 12 10 22 0 50 -10 28 -10 42
0 65 9 24 9 35 -1 53 -9 17 -9 29 -1 43 7 14 7 31 0 54 -30 99 -41 307 -26
489 9 113 19 198 29 234 7 28 6 45 -2 61 -10 18 -9 27 4 47 9 13 16 42 16 64
1 76 7 139 15 157 4 10 5 33 2 51 -3 22 0 42 10 55 9 14 12 32 8 51 -4 19 -1
37 10 54 12 19 15 36 11 61 -5 26 -3 40 9 52 12 12 15 26 10 54 -4 23 -3 39 3
39 16 0 22 40 10 66 -9 18 -8 28 0 36 7 7 12 41 13 77 0 37 5 89 10 116 6 28
14 77 19 110 4 33 15 85 24 115 32 113 57 239 76 375 21 156 82 461 101 508
11 26 19 53 18 60 -1 6 2 21 6 31 6 15 2 25 -21 43 -23 20 -24 22 -6 13 33
-16 39 -5 17 32 -13 22 -15 33 -7 36 7 2 12 9 12 16 0 7 8 28 17 47 10 21 17
59 17 101 1 37 3 68 5 68 10 0 30 -38 31 -57 0 -27 16 -30 24 -5 3 9 12 62 20
116 17 112 11 141 -40 191 -67 64 -291 145 -639 230 -126 31 -247 60 -268 66
-39 10 -259 56 -407 84 -47 9 -123 25 -170 35 -47 11 -148 31 -225 45 -77 14
-158 30 -180 35 -36 8 -126 22 -225 36 -97 13 -352 16 -435 5 -149 -20 -281
-65 -377 -128 -27 -17 -29 -17 -55 0 -112 72 -205 103 -434 147 -121 23 -195
24 -324 4z m-41 -264 c-4 -79 -17 -141 -27 -137 -7 2 -11 15 -9 28 2 13 4 44
5 68 2 39 0 44 -22 48 -14 2 -27 6 -30 10 -3 3 4 3 16 0 13 -3 26 -1 29 4 12
20 39 4 38 -21z m-114 0 c-16 -11 -40 -13 -40 -5 0 8 44 24 50 18 2 -2 -2 -8
-10 -13z m-100 -41 c0 -5 -9 -9 -20 -9 -22 0 -27 16 -7 23 15 5 27 -1 27 -14z
m30 -85 c0 -8 -4 -12 -10 -9 -5 3 -10 10 -10 16 0 5 5 9 10 9 6 0 10 -7 10
-16z m160 -86 c0 -7 -4 -19 -9 -27 -11 -17 -25 3 -17 24 7 18 26 20 26 3z
m-17 -105 c-9 -23 -20 -4 -15 24 5 24 6 25 12 8 4 -11 5 -26 3 -32z m-3 -84
c0 -36 -2 -40 -15 -29 -18 15 -19 36 -2 55 17 20 17 20 17 -26z m1450 -39 c0
-5 -2 -10 -4 -10 -3 0 -8 5 -11 10 -3 6 -1 10 4 10 6 0 11 -4 11 -10z m-1543
-57 c-3 -10 -5 -4 -5 12 0 17 2 24 5 18 2 -7 2 -21 0 -30z m73 17 c0 -11 -4
-20 -10 -20 -5 0 -10 9 -10 20 0 11 5 20 10 20 6 0 10 -9 10 -20z m0 -65 c0
-16 -6 -25 -15 -25 -18 0 -19 4 -3 30 16 26 18 25 18 -5z m-70 5 c0 -5 -4 -10
-10 -10 -5 0 -10 5 -10 10 0 6 5 10 10 10 6 0 10 -4 10 -10z m70 -57 c0 -5 -4
-15 -10 -23 -11 -18 -25 -7 -17 15 6 15 27 21 27 8z m-80 -58 c0 -5 -5 -3 -10
5 -5 8 -10 20 -10 25 0 6 5 3 10 -5 5 -8 10 -19 10 -25z m62 -45 c-2 -23 -8
-38 -12 -33 -9 10 -1 85 9 79 4 -3 5 -23 3 -46z m-82 -127 c-11 -17 -11 -17
-6 0 3 10 7 31 7 45 l2 27 4 -27 c2 -15 -1 -35 -7 -45z m75 57 c3 -5 1 -10 -4
-10 -6 0 -11 5 -11 10 0 6 2 10 4 10 3 0 8 -4 11 -10z m-66 -130 c1 -13 0 -13
-9 0 -5 8 -9 24 -9 35 l0 20 9 -20 c5 -11 9 -27 9 -35z m2651 30 c9 -17 17
-20 46 -14 36 7 45 -5 19 -26 -8 -7 -15 -18 -15 -25 0 -7 7 -18 15 -25 24 -20
17 -32 -14 -25 -24 5 -32 2 -41 -14 -15 -29 -28 -26 -32 6 -2 17 -12 32 -26
39 -35 17 -37 23 -8 33 20 8 26 17 26 41 0 35 14 39 30 10z m331 4 c9 -11 22
-14 41 -10 30 6 35 -3 16 -34 -10 -15 -9 -22 5 -38 25 -27 21 -34 -12 -27 -24
5 -33 2 -43 -14 -19 -30 -40 -27 -32 4 5 22 2 28 -25 38 -38 14 -39 24 -6 37
18 7 25 17 25 35 0 29 12 32 31 9z m-941 -8 c0 -8 -5 -27 -11 -43 -6 -15 -16
-55 -23 -88 -25 -110 -67 -270 -81 -300 -7 -16 -20 -47 -29 -69 -24 -55 -29
-39 -10 30 8 32 33 129 55 214 42 167 76 270 90 270 5 0 9 -6 9 -14z m286 -7
c18 -17 26 -19 44 -9 27 15 38 5 22 -20 -16 -26 -15 -40 5 -62 21 -24 10 -34
-22 -20 -21 10 -26 9 -35 -8 -15 -29 -40 -25 -40 5 0 18 -7 28 -25 35 -30 11
-33 30 -5 37 14 4 20 14 20 34 0 34 6 36 36 8z m-2276 -105 c0 -8 -5 -12 -10
-9 -6 4 -8 11 -5 16 9 14 15 11 15 -7z m2351 -120 c4 -2 11 -29 15 -60 7 -59
24 -57 24 3 0 56 7 63 66 63 41 0 56 -4 61 -16 5 -15 7 -15 15 0 7 12 24 16
63 16 50 0 55 -2 56 -22 l0 -23 9 23 c8 19 17 22 66 22 l56 0 -7 -42 c-6 -43
-6 -43 12 -21 10 12 25 33 34 45 16 23 22 24 173 26 86 2 156 0 156 -3 0 -3
-5 -26 -11 -51 -11 -44 -12 -44 -55 -44 -47 0 -49 -1 -59 -47 l-7 -33 48 0 47
0 -6 -37 c-8 -46 -15 -53 -63 -57 -36 -3 -40 -7 -50 -42 -6 -22 -9 -42 -7 -46
2 -5 27 -8 55 -8 l51 0 -7 -47 c-3 -26 -10 -51 -14 -55 -5 -5 -78 -7 -163 -6
l-154 3 -10 67 c-5 36 -13 69 -16 73 -4 3 -13 -27 -20 -67 l-14 -73 -57 -3
c-32 -2 -58 0 -58 4 0 4 7 45 16 92 8 46 14 86 11 88 -2 3 -9 -21 -16 -53 -6
-32 -16 -75 -22 -95 -10 -38 -10 -38 -64 -38 -41 0 -55 4 -55 14 0 14 8 58 32
172 6 28 9 57 6 64 -2 7 -14 -41 -27 -106 -13 -66 -28 -125 -34 -132 -7 -8
-28 -12 -61 -10 l-51 3 -3 70 c-2 39 -7 74 -11 78 -5 5 -14 -20 -21 -55 -18
-94 -22 -98 -86 -98 l-56 0 7 28 c18 72 46 218 61 317 9 61 21 116 27 124 8 9
25 11 61 6 27 -3 53 -8 57 -11z m-1481 -364 c0 -5 -6 -10 -14 -10 -8 0 -18 5
-21 10 -3 6 3 10 14 10 12 0 21 -4 21 -10z m85 -112 c22 -9 47 -19 55 -22 8
-2 -1 -5 -21 -5 -35 -1 -96 15 -112 29 -4 4 -5 14 -1 24 6 14 9 15 23 3 9 -7
34 -21 56 -29z m105 -39 c0 -6 -4 -7 -10 -4 -5 3 -10 11 -10 16 0 6 5 7 10 4
6 -3 10 -11 10 -16z m1395 -49 c14 -16 26 -19 47 -15 30 7 39 -10 16 -33 -10
-10 -9 -18 5 -41 19 -33 13 -45 -16 -29 -17 9 -23 7 -35 -11 -21 -31 -42 -27
-42 8 0 22 -6 30 -25 35 -32 8 -32 24 1 36 22 9 25 14 19 40 -8 35 4 39 30 10z
m323 -1 c10 -16 19 -19 43 -14 33 7 34 6 17 -29 -9 -21 -8 -29 5 -44 25 -27
21 -35 -13 -29 -23 5 -33 2 -44 -15 -17 -24 -31 -17 -31 15 0 14 -10 27 -29
36 -28 13 -28 14 -11 27 10 8 23 14 28 14 5 0 7 14 4 30 -8 36 11 41 31 9z
m317 1 c14 -16 26 -19 47 -15 31 7 35 -2 14 -31 -13 -16 -13 -22 0 -42 16 -25
9 -51 -9 -33 -17 17 -35 13 -42 -9 -10 -32 -35 -25 -35 10 0 24 -6 33 -27 41
l-28 10 27 21 c22 15 27 25 22 44 -8 29 7 31 31 4z m-1705 -7 c45 -7 51 -13
13 -13 -46 0 -93 11 -93 22 0 6 10 7 23 4 12 -4 38 -10 57 -13z m-740 -63 c0
-5 -2 -10 -4 -10 -3 0 -8 5 -11 10 -3 6 -1 10 4 10 6 0 11 -4 11 -10z m35
-789 c17 -10 16 -10 -10 -5 -32 7 -84 59 -84 84 0 9 16 -3 37 -26 20 -23 46
-47 57 -53z m-480 29 c-3 -5 -13 -10 -21 -10 -8 0 -12 5 -9 10 3 6 13 10 21
10 8 0 12 -4 9 -10z m561 -56 c34 -16 45 -34 22 -34 -14 0 -78 37 -78 45 0 9
22 5 56 -11z m71 -40 c-9 -9 -28 6 -21 18 4 6 10 6 17 -1 6 -6 8 -13 4 -17z
m90 -30 c-3 -3 -12 -4 -19 -1 -8 3 -5 6 6 6 11 1 17 -2 13 -5z m93 -34 c0 -5
-2 -10 -4 -10 -3 0 -8 5 -11 10 -3 6 -1 10 4 10 6 0 11 -4 11 -10z m-1290
-650 c0 -5 -4 -10 -10 -10 -5 0 -10 5 -10 10 0 6 5 10 10 10 6 0 10 -4 10 -10z
m456 -35 c9 -14 27 -28 40 -31 13 -3 24 -10 24 -16 0 -5 21 -18 48 -30 49 -21
82 -45 82 -60 0 -17 -32 -7 -56 17 -14 14 -35 25 -48 25 -13 0 -29 7 -37 16
-7 8 -24 21 -38 29 -14 7 -34 27 -44 44 -16 27 -16 31 -3 31 9 0 23 -11 32
-25z m325 -182 c52 -27 105 -56 119 -65 13 -10 32 -18 41 -18 10 0 30 -10 46
-23 15 -12 46 -30 67 -40 50 -23 36 -41 -18 -23 -22 8 -45 21 -51 29 -6 8 -29
19 -50 23 -22 4 -46 15 -53 25 -6 9 -29 23 -49 30 -20 6 -46 20 -56 30 -11 10
-32 21 -47 24 -32 7 -83 55 -59 55 9 0 58 -21 110 -47z m-101 -123 c0 -5 -2
-10 -4 -10 -3 0 -8 5 -11 10 -3 6 -1 10 4 10 6 0 11 -4 11 -10z m-40 -55 c116
-74 204 -144 183 -145 -14 0 -152 95 -209 144 -23 20 -46 36 -52 36 -6 0 -14
5 -17 10 -13 20 12 9 95 -45z m-183 29 c-3 -3 -12 -4 -19 -1 -8 3 -5 6 6 6 11
1 17 -2 13 -5z m323 -28 c18 -7 29 -16 24 -18 -5 -3 -22 3 -39 13 -36 22 -30
24 15 5z m361 -23 c41 -24 36 -33 -11 -21 -22 6 -40 16 -40 24 0 19 16 18 51
-3z m-614 -15 c-3 -8 -6 -5 -6 6 -1 11 2 17 5 13 3 -3 4 -12 1 -19z m334 -14
c17 -21 -5 -17 -32 5 -24 20 -24 20 -2 14 12 -3 28 -11 34 -19z m-911 -15 c0
-12 -57 -12 -64 0 -3 4 -3 10 -1 13 8 8 65 -4 65 -13z m636 8 c20 -12 43 -31
88 -74 12 -12 35 -27 49 -32 15 -6 27 -17 27 -24 0 -8 11 -19 25 -25 14 -6 25
-19 25 -27 0 -13 -10 -9 -43 15 -24 17 -58 44 -76 60 -18 17 -35 30 -39 30 -4
1 -29 21 -57 45 -46 42 -46 60 1 32z m644 -22 c11 -13 8 -15 -14 -15 -16 0
-26 5 -26 15 0 8 6 15 14 15 7 0 19 -7 26 -15z m-790 -40 c7 -13 17 -22 21
-19 5 2 28 -5 51 -18 24 -12 48 -22 53 -23 6 0 10 -7 10 -15 0 -10 -8 -14 -25
-11 -14 3 -36 5 -50 5 -14 0 -29 5 -33 11 -4 5 -5 -2 -1 -17 5 -23 0 -33 -27
-59 -24 -23 -34 -27 -40 -17 -22 38 -37 49 -66 50 -28 1 -31 3 -22 20 9 16 47
38 66 38 3 0 3 -10 0 -22 -4 -16 1 -28 17 -39 21 -17 22 -16 17 20 -2 19 -11
41 -19 47 -13 10 -14 16 -3 43 16 37 33 40 51 6z m-572 -43 c2 -14 -2 -22 -12
-22 -19 0 -29 17 -22 36 8 22 30 12 34 -14z m735 2 c3 -19 1 -24 -10 -20 -8 3
-17 6 -19 6 -2 0 -4 9 -4 20 0 29 27 25 33 -6z m55 -63 c12 -11 22 -25 22 -32
0 -10 -3 -10 -12 -1 -7 7 -22 12 -35 12 -22 0 -31 19 -16 33 10 10 16 8 41
-12z m-831 -46 c0 -59 -11 -71 -27 -29 -17 43 -13 84 9 84 15 0 18 -8 18 -55z
m-440 9 c-3 -3 -12 -4 -19 -1 -8 3 -5 6 6 6 11 1 17 -2 13 -5z m4121 -41 c2
-16 -8 -29 -40 -51 -164 -111 -578 -323 -913 -467 -99 -42 -200 -86 -225 -98
-59 -26 -348 -148 -585 -247 -206 -86 -322 -128 -690 -255 -44 -15 -93 -33
-110 -41 -100 -45 -504 -199 -575 -220 -111 -33 -252 -42 -340 -21 -178 42
-302 179 -331 366 -15 98 8 225 62 348 20 45 126 218 165 270 13 17 24 35 24
38 0 4 9 17 20 29 10 11 52 59 91 106 157 184 203 231 223 228 33 -5 30 -29
-14 -122 -61 -133 -83 -229 -78 -345 4 -80 9 -105 31 -149 54 -104 180 -159
341 -149 50 3 120 13 156 21 36 8 160 35 275 60 309 67 508 114 785 186 85 23
205 54 265 70 209 54 334 89 635 180 140 42 405 137 610 219 96 38 184 68 195
68 12 -1 21 -10 23 -24z m-3178 7 c0 -5 -5 -10 -11 -10 -5 0 -7 5 -4 10 3 6 8
10 11 10 2 0 4 -4 4 -10z m57 -4 c1 0 4 -13 8 -29 6 -21 4 -27 -9 -27 -10 0
-16 8 -16 21 0 12 -8 28 -17 36 -16 13 -16 13 7 7 14 -3 26 -7 27 -8z m343 4
c0 -5 -2 -10 -4 -10 -3 0 -8 5 -11 10 -3 6 -1 10 4 10 6 0 11 -4 11 -10z
m-880 -44 c0 -2 3 -11 6 -20 4 -12 0 -16 -15 -16 -14 0 -21 6 -21 20 0 11 7
20 15 20 8 0 15 -2 15 -4z m103 -101 c26 -24 53 -46 60 -49 7 -2 0 -5 -14 -5
-19 -1 -43 14 -78 46 -28 26 -51 50 -51 54 0 16 39 -5 83 -46z m-206 -111 c11
-29 -5 -25 -27 7 l-23 31 22 -11 c12 -7 25 -19 28 -27z m-1609 6 c-14 -22 -24
-19 -15 5 4 8 11 15 17 15 6 0 6 -7 -2 -20z m-21 -52 c-3 -8 -6 -5 -6 6 -1 11
2 17 5 13 3 -3 4 -12 1 -19z m1653 -70 c52 -55 70 -94 27 -62 -22 17 -87 98
-87 109 0 12 13 2 60 -47z m-1481 -30 c20 -13 43 -28 51 -35 8 -7 24 -19 35
-27 11 -8 16 -18 12 -22 -4 -5 -16 -3 -25 4 -53 37 -120 72 -141 72 -20 0 -21
2 -11 15 17 21 36 19 79 -7z m936 -8 c3 -5 -1 -10 -10 -10 -9 0 -13 5 -10 10
3 6 8 10 10 10 2 0 7 -4 10 -10z m-789 -57 c-10 -10 -19 5 -10 18 6 11 8 11
12 0 2 -7 1 -15 -2 -18z m1869 0 c35 -17 43 -27 27 -37 -11 -7 -72 31 -72 44
0 13 3 13 45 -7z m-2675 -45 c-1 -17 -39 -67 -40 -51 0 18 22 63 32 63 4 0 8
-6 8 -12z m2760 -28 c0 -5 -4 -10 -10 -10 -5 0 -10 5 -10 10 0 6 5 10 10 10 6
0 10 -4 10 -10z m-1291 -32 c-8 -14 -14 -18 -17 -10 -4 13 17 46 25 38 3 -2
-1 -15 -8 -28z m-359 12 c0 -5 -4 -10 -9 -10 -6 0 -13 5 -16 10 -3 6 1 10 9
10 9 0 16 -4 16 -10z m-1138 -65 c-6 -14 -16 -25 -22 -25 -13 0 -13 13 2 45 8
17 15 22 21 16 7 -7 7 -19 -1 -36z m3558 35 c0 -10 -125 -50 -157 -50 -10 0
-23 -4 -28 -9 -6 -5 -40 -14 -77 -20 -37 -6 -106 -23 -153 -36 -99 -29 -165
-33 -165 -10 0 16 9 19 48 15 12 -1 48 7 80 18 31 11 102 28 157 37 55 10 105
21 110 26 6 4 31 11 55 15 25 4 52 10 60 15 21 12 70 11 70 -1z m53 4 c11 -11
-3 -24 -18 -18 -8 4 -12 10 -9 15 6 11 18 12 27 3z m-1443 -25 c0 -4 -7 -6
-15 -3 -8 4 -15 10 -15 15 0 4 7 6 15 3 8 -4 15 -10 15 -15z m715 -19 c3 -5
-1 -10 -9 -10 -9 0 -16 5 -16 10 0 6 4 10 9 10 6 0 13 -4 16 -10z m-1371 -26
c4 -10 1 -14 -6 -12 -15 5 -23 28 -10 28 5 0 13 -7 16 -16z m36 -45 c0 -5 23
-38 50 -73 28 -35 50 -68 50 -73 0 -5 23 -38 51 -73 28 -35 69 -90 91 -124 22
-34 46 -65 54 -69 8 -4 14 -14 14 -22 0 -8 21 -30 47 -50 41 -31 53 -35 82
-30 19 4 40 14 46 22 8 11 14 12 19 5 3 -6 -1 -17 -9 -26 -9 -8 -14 -19 -13
-23 2 -4 -18 -9 -45 -11 -47 -3 -48 -3 -120 71 -39 40 -83 90 -97 111 -14 21
-46 64 -72 96 -50 61 -138 200 -138 217 0 6 -9 18 -20 28 -24 21 -27 47 -5 39
8 -4 15 -10 15 -15z m4155 -48 c-3 -6 -11 -11 -17 -11 -6 0 -6 6 2 15 14 17
26 13 15 -4z m-4570 -41 c-3 -5 -11 -10 -16 -10 -6 0 -7 5 -4 10 3 6 11 10 16
10 6 0 7 -4 4 -10z m4460 -10 c-3 -5 -11 -10 -16 -10 -6 0 -7 5 -4 10 3 6 11
10 16 10 6 0 7 -4 4 -10z m-5675 -80 c0 -5 -5 -10 -11 -10 -5 0 -7 5 -4 10 3
6 8 10 11 10 2 0 4 -4 4 -10z m209 -25 c50 -21 86 -54 94 -87 3 -12 13 -51 23
-86 9 -34 14 -65 11 -68 -8 -9 -74 15 -87 32 -9 10 -9 18 -2 27 6 7 14 40 17
73 8 74 -11 52 -22 -27 -14 -94 -34 -77 -72 60 -10 36 -22 75 -26 85 -7 15 -5
18 6 14 8 -3 34 -14 58 -23z m5227 -11 c-22 -16 -36 -18 -36 -6 0 11 43 32 50
25 3 -3 -4 -11 -14 -19z m-91 -44 c-3 -5 -11 -10 -16 -10 -6 0 -7 5 -4 10 3 6
11 10 16 10 6 0 7 -4 4 -10z m-4963 -26 c64 -33 90 -64 105 -129 21 -85 22
-84 -51 -61 l-63 21 -22 80 c-12 44 -25 88 -28 98 -7 23 -2 22 59 -9z m4888 1
c0 -7 -57 -35 -72 -35 -7 0 1 9 17 20 28 19 55 26 55 15z m-5850 -63 c0 -15
-28 -47 -35 -40 -11 11 5 48 21 48 8 0 14 -4 14 -8z m1129 -29 c59 -34 88 -62
96 -94 9 -35 -14 -52 -57 -44 -51 10 -58 17 -72 76 -7 30 -17 62 -21 72 -10
23 0 22 54 -10z m4576 17 c-3 -5 -13 -10 -21 -10 -8 0 -14 5 -14 10 0 6 9 10
21 10 11 0 17 -4 14 -10z m230 -40 c3 -5 1 -10 -4 -10 -6 0 -11 5 -11 10 0 6
2 10 4 10 3 0 8 -4 11 -10z m-5366 -57 c1 -7 -3 -13 -9 -13 -5 0 -10 15 -9 33
0 27 2 29 9 12 5 -11 9 -26 9 -32z m105 -51 c11 -13 40 -35 64 -49 23 -14 42
-26 42 -28 0 -1 -16 3 -37 10 -50 17 -97 57 -116 98 -25 52 -21 79 4 32 12
-22 31 -51 43 -63z m4891 88 c-3 -5 -11 -10 -16 -10 -6 0 -7 5 -4 10 3 6 11
10 16 10 6 0 7 -4 4 -10z m-60 -29 c-3 -6 -11 -11 -16 -11 -5 0 -4 6 3 14 14
16 24 13 13 -3z m355 9 c0 -5 -4 -10 -10 -10 -5 0 -10 5 -10 10 0 6 5 10 10
10 6 0 10 -4 10 -10z m-7087 -17 c3 -5 -6 -9 -20 -10 -19 -1 -22 1 -12 8 17
11 26 11 32 2z m3641 -41 c3 -9 9 -24 13 -32 3 -8 -6 -1 -20 16 -15 18 -27 34
-27 38 0 12 28 -6 34 -22z m2926 -22 c0 -5 -7 -10 -15 -10 -8 0 -15 5 -15 10
0 6 7 10 15 10 8 0 15 -4 15 -10z m350 0 c0 -5 -4 -10 -10 -10 -5 0 -10 5 -10
10 0 6 5 10 10 10 6 0 10 -4 10 -10z m-5780 -20 c0 -5 -5 -10 -11 -10 -5 0 -7
5 -4 10 3 6 8 10 11 10 2 0 4 -4 4 -10z m4305 -11 c11 -17 -1 -21 -15 -4 -8 9
-8 15 -2 15 6 0 14 -5 17 -11z m1405 2 c0 -12 -20 -25 -27 -18 -7 7 6 27 18
27 5 0 9 -4 9 -9z m-4360 -11 c0 -5 -5 -10 -11 -10 -5 0 -7 5 -4 10 3 6 8 10
11 10 2 0 4 -4 4 -10z m-714 -35 c-7 -18 -26 -20 -26 -2 0 18 24 41 28 27 2
-6 1 -17 -2 -25z m775 12 c-13 -13 -26 -3 -16 12 3 6 11 8 17 5 6 -4 6 -10 -1
-17z m-469 -11 c24 -8 77 -19 118 -26 41 -6 91 -16 111 -21 20 -5 48 -9 63 -9
17 0 25 -4 20 -11 -4 -7 -20 -8 -43 -4 -20 4 -43 7 -51 7 -8 0 -50 9 -94 19
-43 10 -89 19 -102 19 -12 0 -26 5 -29 10 -3 6 -15 10 -25 10 -10 0 -22 5 -25
10 -8 14 6 13 57 -4z m4313 4 c-3 -5 -10 -10 -16 -10 -5 0 -9 5 -9 10 0 6 7
10 16 10 8 0 12 -4 9 -10z m-3505 -31 c0 -20 -15 -26 -25 -9 -9 15 3 43 15 35
5 -3 10 -15 10 -26z m3870 21 c0 -5 -4 -10 -10 -10 -5 0 -10 5 -10 10 0 6 5
10 10 10 6 0 10 -4 10 -10z m-3150 -10 c0 -5 -2 -10 -4 -10 -3 0 -8 5 -11 10
-3 6 -1 10 4 10 6 0 11 -4 11 -10z m3081 -23 c-13 -13 -26 -3 -16 12 3 6 11 8
17 5 6 -4 6 -10 -1 -17z m-3691 3 c0 -5 -5 -10 -11 -10 -5 0 -7 5 -4 10 3 6 8
10 11 10 2 0 4 -4 4 -10z m-42 -35 c15 -33 15 -35 -3 -35 -16 0 -36 39 -28 53
8 14 20 7 31 -18z m3282 5 c-19 -12 -40 -13 -40 -1 0 9 40 20 50 13 2 -2 -2
-7 -10 -12z m-3175 -20 c3 -5 1 -10 -4 -10 -6 0 -11 5 -11 10 0 6 2 10 4 10 3
0 8 -4 11 -10z m2531 -17 c-7 -7 -26 7 -26 19 0 6 6 6 15 -2 9 -7 13 -15 11
-17z m1004 23 c0 -3 -4 -8 -10 -11 -5 -3 -10 -1 -10 4 0 6 5 11 10 11 6 0 10
-2 10 -4z m-486 -26 c-22 -9 -29 -6 -20 9 4 6 14 7 23 4 15 -6 14 -7 -3 -13z
m-3097 -20 c3 -11 9 -20 14 -20 5 0 9 -7 9 -15 0 -8 -4 -15 -8 -15 -8 0 -16
14 -40 63 -2 4 2 7 8 7 7 0 14 -9 17 -20z m-1962 0 c3 -5 1 -10 -4 -10 -6 0
-11 5 -11 10 0 6 2 10 4 10 3 0 8 -4 11 -10z m4950 4 c13 -5 14 -8 3 -15 -22
-14 -48 -11 -42 6 7 17 14 18 39 9z m495 -4 c0 -5 -4 -10 -10 -10 -5 0 -10 5
-10 10 0 6 5 10 10 10 6 0 10 -4 10 -10z m-3365 -20 c3 -5 -1 -10 -10 -10 -9
0 -13 5 -10 10 3 6 8 10 10 10 2 0 7 -4 10 -10z m3295 -9 c0 -12 -20 -25 -27
-18 -7 7 6 27 18 27 5 0 9 -4 9 -9z m-4670 -11 c0 -5 -4 -10 -10 -10 -5 0 -10
5 -10 10 0 6 5 10 10 10 6 0 10 -4 10 -10z m110 6 c0 -3 -4 -8 -10 -11 -5 -3
-10 -1 -10 4 0 6 5 11 10 11 6 0 10 -2 10 -4z m3806 -17 c19 -22 19 -22 -3
-10 -13 6 -23 16 -23 21 0 15 5 12 26 -11z m675 -12 c-13 -13 -26 -3 -16 12 3
6 11 8 17 5 6 -4 6 -10 -1 -17z m-1901 9 c0 -9 -30 -14 -35 -6 -4 6 3 10 14
10 12 0 21 -2 21 -4z m-390 -25 c0 -17 -18 -21 -24 -6 -3 9 0 15 9 15 8 0 15
-4 15 -9z m-2258 -23 c-7 -7 -12 -8 -12 -2 0 6 3 14 7 17 3 4 9 5 12 2 2 -3
-1 -11 -7 -17z m63 12 c3 -5 1 -10 -4 -10 -6 0 -11 5 -11 10 0 6 2 10 4 10 3
0 8 -4 11 -10z m1252 -16 c-9 -9 -28 6 -21 18 4 6 10 6 17 -1 6 -6 8 -13 4
-17z m2591 -10 c-13 -6 -39 -14 -58 -18 -19 -3 -28 -3 -20 1 8 3 19 12 23 19
4 8 17 14 27 14 11 0 20 5 20 11 0 8 5 7 16 -2 14 -11 13 -14 -8 -25z m552 26
c0 -5 -4 -10 -10 -10 -5 0 -10 5 -10 10 0 6 5 10 10 10 6 0 10 -4 10 -10z
m-6430 -10 c0 -5 -2 -10 -4 -10 -3 0 -8 5 -11 10 -3 6 -1 10 4 10 6 0 11 -4
11 -10z m4260 -30 c0 -5 -2 -10 -4 -10 -3 0 -8 5 -11 10 -3 6 -1 10 4 10 6 0
11 -4 11 -10z m-3690 -10 c0 -5 -4 -10 -10 -10 -5 0 -10 5 -10 10 0 6 5 10 10
10 6 0 10 -4 10 -10z m5672 -12 c-7 -7 -12 -8 -12 -2 0 14 12 26 19 19 2 -3
-1 -11 -7 -17z m-4272 -3 c0 -16 -27 -32 -37 -21 -7 7 16 36 28 36 5 0 9 -7 9
-15z m53 9 c9 -10 -4 -34 -19 -34 -8 0 -14 6 -14 13 0 22 19 35 33 21z m1337
-15 c0 -5 -4 -9 -10 -9 -5 0 -10 7 -10 16 0 8 5 12 10 9 6 -3 10 -10 10 -16z
m-2157 -3 c3 -8 -1 -17 -9 -20 -9 -4 -14 1 -14 14 0 23 15 27 23 6z m697 7 c0
-5 -4 -15 -10 -23 -11 -18 -25 -7 -17 15 6 15 27 21 27 8z m2365 -22 c10 -17
-12 -21 -25 -6 -10 12 -10 15 3 15 9 0 18 -4 22 -9z m1328 -6 c20 0 36 -4 34
-10 -4 -13 -53 -19 -75 -9 -10 4 -28 7 -41 8 -13 0 -26 6 -28 13 -3 9 6 10 34
5 21 -4 55 -7 76 -7z m-5023 -24 c0 -11 -4 -23 -10 -26 -6 -4 -10 5 -10 19 0
14 5 26 10 26 6 0 10 -9 10 -19z m1374 -23 c-4 -13 -7 -34 -6 -48 2 -22 1 -21
-12 8 -14 29 -14 35 1 52 21 24 27 19 17 -12z m-750 1 c-3 -5 -10 -7 -15 -3
-5 3 -7 10 -3 15 3 5 10 7 15 3 5 -3 7 -10 3 -15z m696 7 c0 -8 -5 -18 -11
-21 -6 -4 -7 -19 -4 -35 4 -16 2 -31 -5 -35 -6 -4 -8 -15 -5 -26 11 -35 -30
-20 -64 24 -12 15 -11 17 10 15 20 -3 25 2 27 27 5 44 52 90 52 51z m120 -1
c0 -8 -4 -15 -9 -15 -13 0 -22 16 -14 24 11 11 23 6 23 -9z m1435 5 c3 -5 -1
-10 -10 -10 -9 0 -13 5 -10 10 3 6 8 10 10 10 2 0 7 -4 10 -10z m-1455 -44 c0
-8 3 -21 6 -30 4 -11 1 -16 -10 -16 -11 0 -16 9 -16 30 0 17 5 30 10 30 6 0
10 -6 10 -14z m1544 -37 c-6 -11 -24 -2 -24 11 0 5 7 7 15 4 8 -4 12 -10 9
-15z m-1611 -38 c5 -22 -1 -33 -14 -25 -12 7 -12 44 0 44 5 0 11 -9 14 -19z
m55 -35 c-2 -10 -7 -13 -17 -7 -8 6 -11 16 -7 27 8 21 30 4 24 -20z m1632 14
c0 -5 -4 -10 -10 -10 -5 0 -10 5 -10 10 0 6 5 10 10 10 6 0 10 -4 10 -10z
m-2434 -21 c10 -12 30 -27 44 -33 35 -16 270 -155 299 -178 13 -10 34 -18 47
-18 15 0 24 -6 24 -15 0 -32 -30 -19 -195 82 -49 31 -115 72 -145 92 -30 20
-66 41 -80 47 -14 7 -34 19 -45 28 -20 15 -19 15 6 16 14 0 34 -10 45 -21z
m3854 -9 c0 -5 -4 -10 -10 -10 -5 0 -10 5 -10 10 0 6 5 10 10 10 6 0 10 -4 10
-10z m-3120 -35 c0 -8 -4 -15 -10 -15 -5 0 -10 7 -10 15 0 8 5 15 10 15 6 0
10 -7 10 -15z m850 -30 c10 -12 10 -15 -4 -15 -9 0 -16 7 -16 15 0 8 2 15 4
15 2 0 9 -7 16 -15z m-795 -6 c12 -19 -5 -23 -22 -6 -16 16 -16 17 -1 17 9 0
20 -5 23 -11z m-755 -14 c0 -8 -4 -15 -10 -15 -5 0 -10 7 -10 15 0 8 5 15 10
15 6 0 10 -7 10 -15z m1640 -21 c0 -8 -4 -12 -10 -9 -5 3 -10 10 -10 16 0 5 5
9 10 9 6 0 10 -7 10 -16z m-950 -4 c0 -5 -2 -10 -4 -10 -3 0 -8 5 -11 10 -3 6
-1 10 4 10 6 0 11 -4 11 -10z m1045 -30 c19 -7 25 -14 18 -21 -13 -13 -63 9
-63 28 0 8 4 12 9 9 4 -3 21 -10 36 -16z m1555 10 c0 -5 -2 -10 -4 -10 -3 0
-8 5 -11 10 -3 6 -1 10 4 10 6 0 11 -4 11 -10z m-1656 -20 c22 -11 49 -29 61
-40 12 -11 25 -17 28 -13 4 3 7 -1 7 -10 0 -22 -16 -21 -56 4 -19 11 -40 19
-46 17 -17 -6 -62 37 -54 51 10 15 16 14 60 -9z m-124 0 c11 -7 2 -10 -32 -10
-51 0 -117 -27 -118 -47 0 -7 -4 -13 -10 -13 -5 0 -21 -25 -35 -55 -15 -30
-30 -57 -35 -60 -5 -3 -12 -20 -16 -37 -3 -18 -10 -39 -15 -48 -10 -18 -38
-127 -50 -195 -5 -27 -10 -103 -11 -167 l-3 -117 47 -90 c43 -82 50 -112 22
-93 -22 15 -72 99 -88 148 -25 75 -27 202 -6 304 43 206 52 236 96 319 57 107
98 147 167 159 70 13 70 13 87 2z m36 1 c-3 -5 1 -12 10 -15 9 -4 15 -9 12
-11 -3 -3 -13 -3 -22 1 -18 7 -22 34 -5 34 5 0 8 -4 5 -9z m5679 -61 c-4 -12
-9 -19 -12 -17 -3 3 -2 15 2 27 4 12 9 19 12 17 3 -3 2 -15 -2 -27z m-5395 1
c0 -12 -29 -23 -41 -15 -18 10 -9 24 16 24 14 0 25 -4 25 -9z m-165 -19 c-3
-3 -11 0 -18 7 -9 10 -8 11 6 5 10 -3 15 -9 12 -12z m230 -42 c-3 -5 -13 -10
-21 -10 -8 0 -14 5 -14 10 0 6 9 10 21 10 11 0 17 -4 14 -10z m-1565 -10 c0
-5 -2 -10 -4 -10 -3 0 -8 5 -11 10 -3 6 -1 10 4 10 6 0 11 -4 11 -10z m1470 0
c0 -5 -5 -10 -11 -10 -5 0 -7 5 -4 10 3 6 8 10 11 10 2 0 4 -4 4 -10z m1044
-46 c5 -14 4 -15 -9 -4 -17 14 -19 20 -6 20 5 0 12 -7 15 -16z m-2636 -38 c3
-12 -1 -17 -10 -14 -7 3 -15 13 -16 22 -3 12 1 17 10 14 7 -3 15 -13 16 -22z
m937 14 c3 -5 1 -10 -4 -10 -6 0 -11 5 -11 10 0 6 2 10 4 10 3 0 8 -4 11 -10z
m5987 -123 c-21 -45 -60 -112 -86 -149 -47 -68 -151 -178 -167 -178 -13 0 -11
18 4 27 16 10 146 159 174 200 21 29 60 109 94 193 12 31 14 32 17 12 2 -12
-14 -60 -36 -105z m-6862 78 c0 -8 -4 -15 -10 -15 -5 0 -10 7 -10 15 0 8 5 15
10 15 6 0 10 -7 10 -15z m2664 0 c11 -8 18 -17 15 -19 -2 -2 -15 4 -28 15 -27
22 -15 26 13 4z m-2594 -51 c0 -8 -4 -12 -10 -9 -5 3 -10 13 -10 21 0 8 5 12
10 9 6 -3 10 -13 10 -21z m2689 -31 c2 -2 -3 -3 -11 -3 -9 0 -24 12 -33 28
l-18 27 29 -25 c16 -14 31 -26 33 -27z m66 -63 c16 -17 16 -20 3 -15 -9 4 -19
13 -22 21 -7 19 -2 18 19 -6z m-4481 -60 c35 -27 67 -50 70 -50 3 0 32 -15 63
-32 32 -18 73 -40 93 -48 40 -16 96 -58 88 -65 -2 -2 -28 11 -57 30 -29 19
-59 35 -67 35 -8 0 -14 5 -14 11 0 6 -6 9 -12 7 -7 -3 -18 0 -25 6 -33 29 -43
36 -55 37 -7 0 -26 9 -43 20 -16 11 -38 22 -47 25 -10 4 -18 10 -18 14 0 5 -8
11 -18 14 -20 7 -48 46 -32 46 6 0 39 -22 74 -50z m186 40 c0 -5 -7 -7 -15 -4
-8 4 -15 8 -15 10 0 2 7 4 15 4 8 0 15 -4 15 -10z m4405 -10 c3 -5 1 -10 -4
-10 -6 0 -11 5 -11 10 0 6 2 10 4 10 3 0 8 -4 11 -10z m50 -58 c22 -22 78 -81
125 -133 47 -51 123 -130 169 -174 116 -110 190 -184 226 -224 l30 -34 -50 35
c-49 36 -145 133 -145 148 0 4 -9 11 -19 16 -24 11 -137 120 -171 166 -22 29
-89 103 -186 205 -44 46 -28 42 21 -5z m-65 0 c0 -5 27 -35 60 -68 33 -32 60
-63 60 -69 0 -5 16 -21 34 -35 19 -14 33 -28 33 -31 -1 -3 72 -79 163 -167 90
-89 161 -164 158 -167 -14 -14 -239 212 -453 454 -16 19 -39 44 -50 56 -11 12
-27 30 -35 40 -14 17 -14 18 8 6 12 -6 22 -15 22 -19z m3957 -34 c-3 -8 -6 -5
-6 6 -1 11 2 17 5 13 3 -3 4 -12 1 -19z m-8133 -3 c-4 -8 -8 -15 -10 -15 -2 0
-4 7 -4 15 0 8 4 15 10 15 5 0 7 -7 4 -15z m91 -46 c20 -12 34 -23 32 -25 -7
-7 -77 26 -77 36 0 14 4 13 45 -11z m111 -50 c3 -5 16 -9 28 -9 13 0 52 -15
87 -33 35 -17 79 -38 98 -44 19 -7 32 -16 28 -19 -6 -7 -39 4 -112 36 -22 10
-61 28 -87 39 -26 12 -53 21 -61 21 -7 0 -21 6 -32 13 -16 13 -15 14 14 9 17
-2 34 -8 37 -13z m7934 2 c0 -5 -7 -12 -16 -15 -14 -5 -15 -4 -4 9 14 17 20
19 20 6z m-6700 -11 c0 -7 6 -8 17 -1 10 5 24 6 33 2 8 -5 33 -11 56 -14 22
-4 55 -14 72 -23 18 -8 42 -14 55 -12 22 2 59 -12 147 -56 25 -13 59 -26 77
-29 32 -6 165 -81 261 -146 128 -87 175 -115 307 -180 77 -37 147 -71 155 -75
8 -3 -1 -3 -20 0 -19 4 -51 13 -70 22 -75 32 -125 57 -128 65 -2 4 -12 7 -23
7 -10 0 -19 5 -19 11 0 5 -4 8 -9 5 -5 -4 -23 7 -39 24 -17 16 -37 30 -45 30
-8 0 -82 32 -163 71 -82 39 -187 86 -234 104 -47 19 -98 40 -115 48 -75 37
-189 78 -225 81 -9 1 -22 6 -30 11 -8 6 -28 15 -45 20 -28 9 -49 45 -26 45 6
0 11 -5 11 -10z m6655 -29 c-3 -6 -14 -10 -23 -10 -15 1 -15 2 1 6 9 2 17 9
17 15 0 6 3 9 6 5 3 -3 3 -10 -1 -16z m-8130 -2 c11 -17 2 -18 -19 -3 -17 12
-17 14 -4 14 9 0 20 -5 23 -11z m7885 -19 c0 -5 -7 -10 -16 -10 -8 0 -12 5 -9
10 3 6 10 10 16 10 5 0 9 -4 9 -10z m-3565 -10 c3 -6 -1 -7 -9 -4 -18 7 -21
14 -7 14 6 0 13 -4 16 -10z m-4235 -10 c0 -5 -5 -10 -11 -10 -5 0 -7 5 -4 10
3 6 8 10 11 10 2 0 4 -4 4 -10z m40 -30 c0 -5 -4 -10 -9 -10 -6 0 -13 5 -16
10 -3 6 1 10 9 10 9 0 16 -4 16 -10z m7990 -20 c-14 -11 -34 -20 -45 -20 -14
0 -10 5 15 19 45 26 62 26 30 1z m-7552 3 c-10 -2 -26 -2 -35 0 -10 3 -2 5 17
5 19 0 27 -2 18 -5z m7212 -10 c0 -12 -70 -55 -82 -51 -5 2 7 16 29 31 38 28
53 33 53 20z m-7560 -13 c8 -5 11 -12 8 -16 -10 -9 -38 3 -38 16 0 12 10 13
30 0z m3020 -10 c0 -5 -4 -10 -10 -10 -5 0 -10 5 -10 10 0 6 5 10 10 10 6 0
10 -4 10 -10z m975 -26 c22 -9 28 -13 80 -61 19 -17 44 -35 55 -38 11 -3 20
-11 20 -16 0 -5 7 -9 15 -9 21 0 19 -28 -2 -33 -12 -3 -8 -5 9 -6 14 0 29 5
32 12 5 10 7 10 12 0 7 -15 44 -17 44 -3 0 6 9 10 20 10 11 0 20 -4 20 -9 0
-5 9 -11 20 -14 30 -8 24 6 -20 49 -22 22 -40 44 -40 51 0 6 -9 15 -20 18 -11
3 -20 15 -20 25 0 10 -6 21 -12 23 -10 4 -10 6 0 6 7 1 17 -9 23 -22 6 -12 23
-32 40 -42 16 -11 29 -24 29 -30 0 -5 19 -26 41 -45 23 -19 52 -45 64 -57 12
-13 25 -23 29 -23 7 0 46 -38 46 -46 0 -3 -6 -2 -12 3 -7 4 -65 9 -128 11 -63
1 -130 3 -148 4 -19 1 -37 -4 -41 -11 -7 -11 -228 -44 -242 -35 -4 2 -19 0
-33 -6 -15 -5 -82 -12 -149 -15 -114 -5 -143 -9 -257 -36 -25 -6 -90 -15 -145
-20 -111 -10 -242 -24 -322 -35 -59 -7 -69 5 -34 42 10 11 22 31 26 44 4 13
14 30 21 38 8 7 14 24 14 38 0 13 5 24 11 24 7 0 10 -14 7 -35 -2 -19 0 -35 4
-35 4 0 8 16 8 35 0 25 5 38 18 42 9 4 20 11 24 17 11 17 55 -13 69 -47 7 -17
15 -25 17 -19 2 7 10 12 18 12 8 0 14 5 14 10 0 6 33 10 80 10 47 0 80 4 80
10 0 6 14 10 30 10 17 0 30 4 30 9 0 5 32 8 70 8 39 -1 70 -5 70 -9 0 -4 9 -8
20 -8 11 0 20 5 20 10 0 6 9 10 20 10 13 0 20 -7 20 -20 0 -14 7 -20 21 -20
11 0 28 -4 38 -9 13 -7 21 -5 31 10 8 10 21 19 30 19 9 0 22 9 30 20 16 22 46
27 53 8 2 -7 8 -9 13 -5 5 4 2 13 -6 18 -11 8 -12 12 -2 16 8 3 12 26 12 64 0
52 2 59 20 59 13 0 20 7 20 20 0 15 6 18 28 15 15 -2 36 -7 47 -11z m3925 -14
c0 -5 -7 -10 -16 -10 -8 0 -12 5 -9 10 3 6 10 10 16 10 5 0 9 -4 9 -10z m-470
-10 c0 -5 -7 -10 -15 -10 -8 0 -15 5 -15 10 0 6 7 10 15 10 8 0 15 -4 15 -10z
m-4496 -72 c-4 -29 -7 -61 -6 -71 0 -9 -10 -42 -23 -72 -14 -30 -21 -55 -17
-55 4 0 3 -4 -3 -8 -15 -10 -55 -70 -55 -80 0 -5 -7 -15 -15 -22 -27 -22 -17
10 31 105 50 99 69 148 79 213 4 23 9 42 12 42 3 0 1 -24 -3 -52z m57 19 c-8
-8 -11 -7 -11 4 0 20 13 34 18 19 3 -7 -1 -17 -7 -23z m4824 23 c-3 -5 -14
-10 -23 -10 -15 0 -15 2 -2 10 20 13 33 13 25 0z m-7425 -50 c8 -5 11 -10 5
-10 -5 0 -17 5 -25 10 -8 5 -10 10 -5 10 6 0 17 -5 25 -10z m2591 -77 c-10
-17 -10 -16 -11 3 0 23 13 41 18 25 2 -6 -1 -18 -7 -28z m79 13 c0 -3 -4 -8
-10 -11 -5 -3 -10 -1 -10 4 0 6 5 11 10 11 6 0 10 -2 10 -4z m4438 -79 c-53
-77 -133 -147 -168 -147 -20 0 -10 16 12 17 25 2 51 31 41 46 -3 6 -2 7 4 4
13 -8 53 21 53 39 0 8 5 14 11 14 14 0 48 41 49 58 0 7 5 10 10 7 6 -4 2 -19
-12 -38z m212 27 c-52 -16 -89 -19 -74 -5 10 11 45 18 89 19 26 1 23 -1 -15
-14z m-4740 -9 c0 -32 -84 -175 -103 -175 -9 0 46 103 70 131 7 8 13 25 13 37
0 12 5 22 10 22 6 0 10 -7 10 -15z m4610 -24 c-6 -12 -8 -21 -5 -21 5 0 -53
-52 -88 -79 -15 -12 -17 -12 -11 3 3 9 9 16 14 16 12 0 64 54 79 83 8 15 16
25 18 23 3 -2 0 -14 -7 -25z m-4773 -53 l-35 -63 -49 1 c-104 4 -266 38 -320
69 l-28 16 35 -6 c63 -10 271 -17 288 -9 25 11 28 11 71 13 30 1 41 6 46 21 3
11 11 20 17 20 5 0 -6 -28 -25 -62z m4619 49 c11 -11 -19 -8 -36 3 -12 8 -10
9 7 7 12 -2 26 -6 29 -10z m-76 -53 c14 -7 18 -13 10 -13 -8 0 -31 9 -50 20
-26 15 -29 18 -10 13 14 -4 36 -13 50 -20z m297 20 c-3 -3 -12 -4 -19 -1 -8 3
-5 6 6 6 11 1 17 -2 13 -5z m-394 -59 c32 -23 3 -18 -37 6 -20 12 -36 23 -36
25 0 6 51 -15 73 -31z m-158 -5 c3 -5 2 -10 -4 -10 -5 0 -13 5 -16 10 -3 6 -2
10 4 10 5 0 13 -4 16 -10z m74 -26 c2 -2 2 -7 -2 -10 -3 -3 -16 2 -29 11 l-23
17 25 -7 c14 -4 27 -9 29 -11z m-122 -20 c-3 -3 -12 -4 -19 -1 -8 3 -5 6 6 6
11 1 17 -2 13 -5z m-4917 -94 c0 -5 -5 -10 -11 -10 -5 0 -7 5 -4 10 3 6 8 10
11 10 2 0 4 -4 4 -10z m180 -44 c0 -3 -4 -8 -10 -11 -5 -3 -10 -1 -10 4 0 6 5
11 10 11 6 0 10 -2 10 -4z"/>
<path d="M8101 7514 c0 -11 3 -14 6 -6 3 7 2 16 -1 19 -3 4 -6 -2 -5 -13z"/>
<path d="M8455 7450 l-47 -72 17 -89 c10 -50 20 -88 22 -85 3 2 13 55 24 118
10 62 24 130 30 151 20 61 4 53 -46 -23z"/>
<path d="M8092 7460 c0 -14 2 -19 5 -12 2 6 2 18 0 25 -3 6 -5 1 -5 -13z"/>
<path d="M8211 7394 c0 -11 3 -14 6 -6 3 7 2 16 -1 19 -3 4 -6 -2 -5 -13z"/>
<path d="M3415 3519 c-11 -17 1 -21 15 -4 8 9 8 15 2 15 -6 0 -14 -5 -17 -11z"/>
<path d="M5562 1703 c2 -10 10 -18 18 -18 8 0 16 8 18 18 2 12 -3 17 -18 17
-15 0 -20 -5 -18 -17z"/>
<path d="M4898 1673 c12 -2 30 -2 40 0 9 3 -1 5 -23 4 -22 0 -30 -2 -17 -4z"/>
<path d="M4908 1653 c12 -2 32 -2 45 0 12 2 2 4 -23 4 -25 0 -35 -2 -22 -4z"/>
<path d="M4740 1630 c0 -5 5 -10 10 -10 6 0 10 5 10 10 0 6 -4 10 -10 10 -5 0
-10 -4 -10 -10z"/>
<path d="M5510 7665 c0 -14 4 -25 9 -25 4 0 6 11 3 25 -2 14 -6 25 -8 25 -2 0
-4 -11 -4 -25z"/>
<path d="M5500 7206 c0 -14 5 -28 10 -31 6 -3 10 5 10 19 0 14 -4 28 -10 31
-6 3 -10 -5 -10 -19z"/>
<path d="M9050 4230 c0 -5 5 -10 11 -10 5 0 7 5 4 10 -3 6 -8 10 -11 10 -2 0
-4 -4 -4 -10z"/>
<path d="M3005 4110 c-3 -5 -2 -10 4 -10 5 0 13 5 16 10 3 6 2 10 -4 10 -5 0
-13 -4 -16 -10z"/>
<path d="M2375 3700 c-3 -5 3 -10 15 -10 12 0 18 5 15 10 -3 6 -10 10 -15 10
-5 0 -12 -4 -15 -10z"/>
<path d="M1940 3595 c-14 -8 -34 -14 -44 -15 -24 0 -126 -51 -126 -63 0 -10
71 2 85 14 5 5 17 9 27 9 17 0 148 59 148 66 0 10 -68 2 -90 -11z"/>
<path d="M1573 3503 c9 -2 25 -2 35 0 9 3 1 5 -18 5 -19 0 -27 -2 -17 -5z"/>
</g>
</svg>
