<?xml version="1.0" standalone="no"?>
<!DOCTYPE svg PUBLIC "-//W3C//DTD SVG 20010904//EN"
 "http://www.w3.org/TR/2001/REC-SVG-20010904/DTD/svg10.dtd">
<svg version="1.0" xmlns="http://www.w3.org/2000/svg"
 width="307.000000pt" height="225.000000pt" viewBox="0 0 307.000000 225.000000"
 preserveAspectRatio="xMidYMid meet">

<g transform="translate(0.000000,225.000000) scale(0.100000,-0.100000)"
fill="#000000" stroke="none">
<path d="M2304 2099 c-30 -9 -94 -69 -94 -89 0 -16 -59 -132 -78 -155 -26 -29
-76 -63 -106 -71 -14 -3 -23 -11 -19 -17 3 -5 1 -7 -5 -4 -13 9 -42 -2 -42
-15 0 -13 53 -4 155 28 87 27 131 51 187 102 l37 34 0 81 c0 45 3 90 6 100 8
19 4 19 -41 6z"/>
<path d="M2465 1999 c-13 -5 -15 -8 -5 -8 9 -1 16 -11 16 -26 1 -13 -1 -24 -5
-23 -22 2 -41 -4 -36 -12 3 -5 2 -10 -4 -10 -5 0 -12 6 -15 13 -3 8 -9 6 -21
-8 -15 -19 -14 -20 7 -27 13 -3 17 -6 9 -7 -8 -1 -11 -7 -7 -18 6 -14 4 -14
-14 2 -16 14 -21 16 -18 5 2 -9 -3 -14 -12 -12 -10 1 -9 -2 4 -13 18 -14 18
-15 2 -15 -9 0 -14 -4 -11 -10 6 -10 -7 -14 -32 -11 -7 1 -10 -5 -7 -13 5 -13
9 -14 32 -2 47 24 122 97 143 138 16 32 17 41 7 52 -9 8 -21 10 -33 5z"/>
<path d="M1335 1980 c3 -5 8 -10 11 -10 2 0 4 5 4 10 0 6 -5 10 -11 10 -5 0
-7 -4 -4 -10z"/>
<path d="M2509 1942 c-35 -65 -137 -146 -228 -181 -78 -30 -311 -78 -391 -82
-55 -2 -97 8 -103 26 -3 7 -22 15 -41 19 -20 4 -36 10 -36 14 0 4 -13 16 -30
25 -16 10 -30 15 -30 11 0 -4 -8 2 -18 12 -38 41 -100 84 -105 71 -3 -6 -6 -2
-6 11 -1 12 -9 26 -18 29 -10 4 -23 14 -30 22 -7 9 -13 12 -13 6 0 -6 -3 -6
-8 0 -8 13 -67 55 -76 55 -3 0 -6 -4 -6 -10 0 -5 6 -10 14 -10 17 0 41 -28 32
-37 -3 -4 -12 2 -20 12 -7 10 -18 15 -24 11 -5 -3 -12 -1 -14 5 -2 6 -19 11
-38 12 -32 2 -34 0 -37 -35 -4 -33 -1 -39 21 -48 32 -12 34 -19 2 -13 -19 4
-25 0 -30 -23 -5 -18 -2 -32 8 -42 13 -13 13 -18 -1 -38 -12 -18 -21 -22 -44
-17 -24 4 -29 2 -30 -13 -1 -11 -3 -30 -5 -44 -1 -14 6 -37 16 -51 19 -26 19
-27 0 -32 -10 -3 -21 0 -24 7 -3 8 -7 8 -13 0 -4 -6 -15 -13 -24 -16 -11 -4
-15 -15 -11 -37 3 -24 0 -31 -12 -31 -19 0 -22 -40 -3 -41 6 0 4 -4 -6 -8 -16
-6 -12 -11 23 -40 55 -44 44 -52 -16 -12 -27 19 -44 26 -41 17 3 -8 1 -16 -5
-18 -6 -2 -13 -15 -15 -29 -1 -13 -8 -34 -15 -46 -16 -33 11 -61 54 -56 18 1
3 -5 -34 -15 -50 -12 -72 -24 -84 -42 -9 -14 -24 -31 -32 -37 -14 -11 -13 -15
3 -33 16 -18 27 -20 74 -16 60 6 59 2 -1 -9 l-38 -6 17 -27 c17 -27 17 -27 -3
-9 -27 22 -39 22 -56 -5 l-15 -22 -31 23 c-26 18 -32 19 -32 7 0 -9 8 -16 19
-16 11 0 23 -5 26 -11 4 -6 13 -8 21 -5 8 3 13 0 11 -7 -1 -7 17 -14 49 -17
37 -4 61 -14 87 -35 37 -32 47 -48 22 -39 -8 4 -15 10 -15 16 0 5 -5 6 -12 2
-7 -4 -8 -3 -4 4 4 7 1 12 -8 12 -8 0 -19 6 -23 13 -4 6 -17 12 -28 13 -41 1
-105 16 -105 25 0 5 -9 9 -20 9 -26 0 -22 -17 10 -47 l25 -23 -44 15 c-47 16
-101 20 -101 7 0 -4 5 -13 12 -20 9 -9 8 -18 -1 -39 l-13 -28 24 22 c20 18 26
20 41 8 16 -11 16 -13 1 -19 -14 -5 -14 -9 -3 -24 13 -15 12 -16 -2 -4 -14 10
-20 10 -33 -3 -20 -21 -21 -20 10 -23 15 -1 33 -7 40 -13 11 -9 14 -8 14 0 0
7 5 9 10 6 16 -10 12 -35 -5 -29 -9 4 -15 0 -15 -7 0 -11 -2 -11 -9 1 -6 8 -7
18 -4 24 3 5 1 6 -6 2 -6 -4 -9 -11 -6 -16 5 -8 -13 -27 -27 -29 -18 -3 -52
-20 -40 -20 6 -1 12 -5 12 -10 0 -6 -9 -8 -20 -6 -11 2 -24 -3 -28 -12 -5 -8
-13 -15 -18 -15 -5 1 -8 -6 -6 -14 2 -8 -2 -14 -8 -14 -5 0 -10 7 -10 15 0 9
-8 6 -25 -11 -29 -29 -31 -34 -8 -34 24 0 12 -7 -22 -13 -16 -3 -44 -10 -62
-15 -17 -6 -33 -8 -36 -6 -2 3 -10 -2 -17 -11 -11 -13 -10 -14 4 -9 9 3 16 2
16 -4 0 -12 -28 -24 -40 -17 -4 3 -10 -1 -13 -8 -3 -9 6 -14 32 -16 54 -3 57
-16 3 -15 -26 0 -53 -4 -61 -10 -12 -9 -13 -8 -6 4 7 12 6 13 -6 4 -8 -6 -43
-10 -82 -8 -44 2 -65 0 -61 -7 4 -7 -6 -8 -30 -4 -23 5 -36 3 -36 -3 0 -6 19
-15 43 -19 l42 -9 -58 -18 c-32 -10 -71 -16 -86 -13 -15 3 -33 1 -41 -4 -12
-8 -9 -14 16 -37 17 -15 47 -49 68 -75 21 -27 50 -53 65 -59 14 -6 91 -15 171
-19 114 -6 164 -5 235 7 98 17 263 70 365 117 36 16 101 45 144 63 118 50 301
165 415 262 25 20 67 52 95 71 28 18 78 54 111 80 33 26 96 71 140 101 119 79
216 150 250 181 32 29 58 45 175 104 122 62 323 183 358 216 34 32 42 63 17
73 -8 3 -15 10 -15 17 0 12 -49 78 -87 118 -26 27 -28 37 -10 44 7 4 6 6 -5 6
-10 1 -19 13 -23 31 -4 17 -11 28 -15 25 -5 -3 -12 11 -16 32 l-7 37 -12 -41
c-25 -85 -195 -357 -244 -393 -61 -43 -119 -31 -143 28 -13 34 -14 154 -1 177
9 15 11 14 17 -11 10 -41 45 -74 76 -74 17 0 44 15 73 40 51 45 159 176 182
220 19 36 28 103 13 93 -7 -4 -9 -1 -6 8 3 8 0 19 -7 25 -9 9 -17 1 -36 -34z
m-1062 -38 c-3 -3 -12 -4 -19 -1 -8 3 -5 6 6 6 11 1 17 -2 13 -5z m-137 -94
c0 -5 -7 -7 -15 -4 -8 4 -15 8 -15 10 0 2 7 4 15 4 8 0 15 -4 15 -10z m1345
-80 c-3 -5 -11 -10 -16 -10 -6 0 -7 5 -4 10 3 6 11 10 16 10 6 0 7 -4 4 -10z
m-988 -6 c-3 -3 -12 -4 -19 -1 -8 3 -5 6 6 6 11 1 17 -2 13 -5z m113 -34 c0
-5 -5 -10 -11 -10 -5 0 -7 5 -4 10 3 6 8 10 11 10 2 0 4 -4 4 -10z m131 -38
c-7 -2 -18 1 -23 6 -8 8 -4 9 13 5 13 -4 18 -8 10 -11z m-86 -12 c3 -6 17 -7
31 -4 33 8 30 -2 -4 -14 -24 -8 -31 -7 -40 9 -7 11 -8 19 -3 19 6 0 13 -5 16
-10z m-325 -9 c0 -11 -122 -26 -142 -18 -7 3 3 6 22 7 19 1 44 5 55 10 27 12
65 12 65 1z m225 -41 c-3 -5 -22 -10 -41 -10 -21 0 -33 4 -29 10 3 6 22 10 41
10 21 0 33 -4 29 -10z m-489 -217 c-6 -6 -36 9 -36 18 0 5 9 4 20 -3 10 -7 18
-14 16 -15z m42 -51 c8 -6 2 -9 -18 -9 -20 0 -26 3 -18 9 7 4 15 8 18 8 3 0
11 -4 18 -8z m435 -139 c-7 -2 -19 -2 -25 0 -7 3 -2 5 12 5 14 0 19 -2 13 -5z
m-127 -259 c-27 -25 -58 -49 -70 -55 -12 -6 -7 0 9 13 17 13 46 37 65 55 19
18 37 32 40 32 3 0 -17 -20 -44 -45z m-151 -104 c-3 -5 -12 -10 -18 -10 -7 0
-6 4 3 10 19 12 23 12 15 0z m-605 -8 c0 -5 -7 -9 -15 -9 -8 0 -12 4 -9 9 3 4
9 8 15 8 5 0 9 -4 9 -8z m-113 -108 c-3 -3 -12 -4 -19 -1 -8 3 -5 6 6 6 11 1
17 -2 13 -5z m-77 -115 c0 -5 -4 -9 -8 -9 -5 0 -9 7 -9 15 0 8 4 12 9 9 4 -3
8 -9 8 -15z m60 7 c0 -3 -4 -8 -10 -11 -5 -3 -10 -1 -10 4 0 6 5 11 10 11 6 0
10 -2 10 -4z m-147 -23 c-7 -2 -19 -2 -25 0 -7 3 -2 5 12 5 14 0 19 -2 13 -5z"/>
<path d="M2325 1830 c3 -5 8 -10 11 -10 2 0 4 5 4 10 0 6 -5 10 -11 10 -5 0
-7 -4 -4 -10z"/>
<path d="M2254 1782 c3 -5 0 -13 -6 -15 -8 -3 -6 -6 5 -6 19 -1 23 14 5 25 -6
4 -8 3 -4 -4z"/>
<path d="M2666 1292 c9 -35 55 -134 60 -129 2 2 -12 37 -31 78 -20 41 -33 63
-29 51z"/>
<path d="M2440 1101 c0 -6 4 -13 10 -16 6 -3 7 1 4 9 -7 18 -14 21 -14 7z"/>
<path d="M2229 1034 c5 -16 20 -52 35 -79 30 -56 29 -47 -7 38 -27 65 -41 84
-28 41z"/>
<path d="M2071 950 c-1 -8 8 -37 19 -65 17 -42 19 -44 14 -15 -8 42 -32 101
-33 80z"/>
<path d="M765 880 c-3 -5 -1 -10 4 -10 6 0 11 5 11 10 0 6 -2 10 -4 10 -3 0
-8 -4 -11 -10z"/>
<path d="M1925 840 c12 -37 45 -106 45 -94 0 19 -32 104 -42 110 -6 4 -8 -2
-3 -16z"/>
<path d="M1807 715 c9 -19 18 -33 20 -31 6 6 -19 66 -28 66 -5 0 -1 -16 8 -35z"/>
<path d="M465 620 c-3 -5 -1 -10 4 -10 6 0 11 5 11 10 0 6 -2 10 -4 10 -3 0
-8 -4 -11 -10z"/>
<path d="M1620 623 c1 -5 12 -28 25 -53 29 -54 33 -36 5 20 -19 37 -31 50 -30
33z"/>
<path d="M1451 495 c0 -5 8 -26 19 -45 11 -19 19 -30 19 -25 0 6 -8 26 -19 45
-11 19 -19 31 -19 25z"/>
<path d="M1250 413 c1 -12 39 -79 40 -70 0 12 -28 77 -34 77 -4 0 -6 -3 -6 -7z"/>
<path d="M1031 325 c-1 -22 37 -90 45 -82 3 3 -6 27 -20 54 -16 31 -25 41 -25
28z"/>
<path d="M169 267 c13 -16 12 -20 -7 -33 -12 -8 -22 -19 -22 -23 0 -26 257
-67 505 -81 225 -13 303 -7 315 25 7 18 3 20 -33 20 -40 0 -43 2 -65 49 -28
58 -43 54 -17 -5 25 -55 16 -60 -119 -57 l-109 3 -13 35 -12 35 -1 -37 c-1
-37 -2 -38 -38 -38 -38 0 -153 16 -185 26 -9 3 -20 14 -23 25 -7 19 -7 20 -20
2 -13 -17 -15 -17 -57 4 -23 12 -59 32 -78 45 -26 17 -31 18 -21 5z"/>
</g>
</svg>
