<?xml version="1.0" standalone="no"?>
<!DOCTYPE svg PUBLIC "-//W3C//DTD SVG 20010904//EN"
 "http://www.w3.org/TR/2001/REC-SVG-20010904/DTD/svg10.dtd">
<svg version="1.0" xmlns="http://www.w3.org/2000/svg"
 width="430.000000pt" height="225.000000pt" viewBox="0 0 430.000000 225.000000"
 preserveAspectRatio="xMidYMid meet">

<g transform="translate(0.000000,225.000000) scale(0.100000,-0.100000)"
fill="#000000" stroke="none">
<path d="M1443 1924 c-175 -88 -224 -184 -152 -300 17 -27 45 -60 61 -74 l30
-26 -59 -55 c-93 -86 -190 -155 -283 -201 -80 -40 -90 -43 -170 -43 -75 0 -93
4 -154 33 -87 41 -182 135 -221 218 -15 33 -40 87 -56 121 -34 72 -125 173
-156 173 -37 0 -46 -23 -38 -97 14 -122 10 -285 -7 -318 -28 -54 -78 -248 -87
-340 -5 -49 -5 -115 -1 -145 6 -44 4 -59 -8 -73 -10 -11 -17 -40 -18 -75 -1
-31 -9 -77 -18 -102 -18 -48 -84 -163 -98 -168 -10 -5 -11 -42 0 -42 4 0 16
-13 25 -30 10 -16 24 -30 30 -30 7 0 20 -9 30 -20 9 -11 23 -20 31 -20 8 0 16
-7 20 -15 3 -8 14 -15 25 -15 11 0 24 -7 29 -17 5 -9 19 -17 30 -18 11 0 27
-9 37 -18 9 -10 21 -14 26 -11 6 3 19 -2 29 -11 10 -9 24 -14 30 -10 6 4 17
-1 24 -11 8 -10 20 -15 29 -11 8 3 21 -1 28 -9 7 -8 19 -12 27 -9 8 3 21 0 28
-6 8 -6 23 -9 33 -6 16 4 31 -9 31 -26 0 -1 -25 -3 -56 -5 -30 -2 -65 -7 -76
-11 -64 -23 450 -43 1042 -39 283 2 719 0 967 -5 285 -4 504 -3 590 3 76 6
237 17 358 25 236 16 270 21 298 40 16 11 13 13 -20 19 -21 3 -56 6 -78 6 -48
1 -37 8 55 39 36 12 74 26 85 31 11 4 45 18 75 30 82 32 267 127 337 172 34
22 82 65 107 96 25 31 50 62 56 69 13 16 13 123 0 123 -5 0 -10 12 -10 28 -1
50 -35 107 -77 129 -89 46 -274 93 -428 109 -325 32 -500 72 -660 148 -49 24
-102 46 -116 49 -14 4 -41 18 -60 32 -19 13 -50 32 -69 40 -19 9 -42 20 -50
25 -8 6 -27 19 -43 29 -15 10 -46 24 -70 31 -81 24 -134 50 -166 79 -17 16
-53 37 -79 46 -26 9 -60 24 -77 32 -16 9 -44 24 -61 33 -17 9 -44 29 -60 44
-32 30 -95 66 -117 66 -7 0 -31 13 -53 29 -21 16 -49 32 -61 35 -12 4 -25 16
-28 27 -8 25 -81 79 -107 79 -10 0 -18 -7 -18 -15 0 -8 -4 -15 -10 -15 -5 0
-10 7 -10 16 0 8 -4 12 -10 9 -5 -3 -10 -1 -10 6 0 7 -3 10 -6 6 -4 -3 -25 9
-48 27 -59 47 -211 126 -243 126 -16 0 -60 -16 -100 -36z m547 -421 c0 -15
-70 -120 -114 -173 -12 -13 24 18 79 70 55 51 101 100 103 107 5 20 22 5 22
-20 0 -15 -39 -61 -119 -141 -108 -108 -121 -118 -137 -105 -9 8 -19 13 -21
12 -15 -11 -22 0 -12 20 12 23 142 210 167 239 16 20 32 15 32 -9z m283 -115
c4 -13 -28 -82 -61 -128 -9 -14 16 4 56 40 39 35 72 68 72 73 0 4 5 5 10 2 23
-15 5 -45 -78 -127 -48 -48 -90 -90 -94 -94 -9 -8 -68 6 -68 16 0 5 25 49 56
97 31 48 63 98 71 111 15 25 29 28 36 10z m297 -154 c0 -9 -10 -30 -22 -47
l-22 -32 39 32 c22 18 48 39 58 48 22 19 27 19 27 -3 0 -9 -36 -53 -79 -96
-61 -61 -83 -77 -93 -69 -7 6 -21 12 -31 14 -14 3 -10 15 29 74 25 39 51 76
56 83 15 17 38 15 38 -4z m-1926 -114 c105 -34 288 -92 406 -130 306 -99 813
-256 890 -276 36 -9 103 -17 150 -18 76 -1 90 2 132 26 25 15 56 44 68 63 30
49 37 136 16 209 -10 32 -14 61 -11 65 11 10 78 -74 131 -162 26 -45 61 -119
77 -166 26 -75 29 -95 24 -162 -3 -42 -12 -90 -21 -107 -21 -40 -20 -42 6 -42
12 0 19 -2 16 -5 -8 -8 -98 7 -93 16 3 4 -21 13 -52 19 -32 6 -170 39 -307 71
-137 33 -300 67 -361 74 -123 15 -122 15 -500 188 -374 170 -787 376 -780 387
3 5 9 10 12 10 3 0 91 -27 197 -60z m2216 12 c0 -16 -7 -37 -15 -48 -26 -34
-16 -39 18 -7 17 17 42 36 55 42 41 22 25 -11 -39 -75 -59 -60 -62 -61 -92
-50 -18 6 -33 11 -35 12 -3 2 65 122 81 142 16 20 27 14 27 -16z m-2489 -147
c24 -10 28 -14 14 -14 -11 0 -29 6 -39 14 -25 19 -17 19 25 0z m-61 -5 c-8 -5
-28 -9 -45 -9 -30 2 -30 2 5 9 51 11 57 11 40 0z m141 -91 c-6 -39 -18 -84
-26 -99 -18 -34 -61 -70 -85 -70 -16 0 -50 31 -65 60 -4 8 5 0 20 -17 32 -40
44 -41 83 -8 39 32 61 91 64 165 2 37 6 56 12 50 6 -6 5 -36 -3 -81z m-121 2
c0 -16 -6 -32 -12 -34 -10 -4 -10 -8 1 -15 24 -17 43 11 31 44 -13 34 -6 43
11 12 17 -30 17 -47 2 -79 -7 -15 -10 -29 -7 -32 3 -3 0 -8 -7 -13 -8 -4 -10
-3 -5 4 4 7 3 12 -3 12 -20 0 -42 59 -35 95 8 42 24 46 24 6z m270 -761 c0 -5
-4 -10 -10 -10 -5 0 -10 5 -10 10 0 6 5 10 10 10 6 0 10 -4 10 -10z"/>
<path d="M2029 1443 c-13 -16 -12 -17 4 -4 9 7 17 15 17 17 0 8 -8 3 -21 -13z"/>
<path d="M1904 1328 l-29 -33 33 29 c30 28 37 36 29 36 -2 0 -16 -15 -33 -32z"/>
</g>
</svg>
