<?xml version="1.0" standalone="no"?>
<!DOCTYPE svg PUBLIC "-//W3C//DTD SVG 20010904//EN"
 "http://www.w3.org/TR/2001/REC-SVG-20010904/DTD/svg10.dtd">
<svg version="1.0" xmlns="http://www.w3.org/2000/svg"
 width="1200.000000pt" height="380.000000pt" viewBox="0 0 1200.000000 380.000000"
 preserveAspectRatio="xMidYMid meet">

<g transform="translate(0.000000,380.000000) scale(0.100000,-0.100000)"
fill="#000000" stroke="none">
<path d="M2349 3503 c-319 -326 -668 -785 -899 -1184 -204 -351 -341 -703
-380 -974 -14 -104 -12 -290 5 -391 64 -368 278 -630 625 -765 517 -203 1295
-82 2252 349 84 38 266 119 403 180 138 60 387 171 555 245 620 274 931 412
1170 517 135 60 425 188 645 285 482 214 1197 529 1429 632 93 41 368 162 610
270 442 195 587 259 1331 588 220 97 498 220 617 273 120 53 216 97 215 99 -4
3 -43 -7 -642 -172 -253 -69 -541 -148 -640 -175 -99 -27 -229 -62 -290 -79
-60 -17 -555 -152 -1100 -300 -544 -149 -1172 -320 -1395 -381 -577 -159
-2669 -728 -2895 -789 -381 -101 -616 -137 -840 -128 -219 8 -413 58 -572 148
-93 52 -241 195 -292 282 -146 249 -149 597 -9 1021 45 136 93 254 178 439 43
92 77 167 76 167 -2 0 -72 -71 -157 -157z"/>
</g>
</svg>
